<svg width="391" height="110" viewBox="0 0 391 110" fill="none" xmlns="http://www.w3.org/2000/svg">
<mask id="path-1-outside-1_180_4910" maskUnits="userSpaceOnUse" x="27" y="11" width="359" height="80" fill="black">
<rect fill="white" x="27" y="11" width="359" height="80"/>
<path d="M38.8638 16.6797H49.3374L61.2393 53.7769L73.1411 16.6797H83.6147L65.4873 70H56.9912L38.8638 16.6797ZM32.4917 16.6797H43.3315L45.3457 57.5488V70H32.4917V16.6797ZM79.147 16.6797H90.0234V70H77.1328V57.5488L79.147 16.6797ZM126.617 70.7324C123.394 70.7324 120.513 70.2319 117.974 69.231C115.435 68.2056 113.287 66.8018 111.529 65.0195C109.795 63.2373 108.465 61.1865 107.537 58.8672C106.634 56.5479 106.182 54.0942 106.182 51.5063V50.1147C106.182 47.2095 106.585 44.5239 107.391 42.0581C108.196 39.5679 109.393 37.395 110.979 35.5396C112.566 33.6841 114.556 32.2437 116.949 31.2183C119.341 30.1685 122.125 29.6436 125.298 29.6436C128.106 29.6436 130.621 30.0952 132.842 30.9985C135.064 31.9019 136.944 33.1958 138.482 34.8804C140.044 36.5649 141.229 38.6035 142.034 40.9961C142.864 43.3887 143.279 46.0742 143.279 49.0527V54.0698H110.906V46.3428H131.231V45.3906C131.255 44.0723 131.023 42.9492 130.535 42.0215C130.071 41.0938 129.388 40.3857 128.484 39.8975C127.581 39.4092 126.482 39.165 125.188 39.165C123.846 39.165 122.735 39.458 121.856 40.0439C121.001 40.6299 120.33 41.4355 119.842 42.4609C119.378 43.4619 119.048 44.6216 118.853 45.9399C118.658 47.2583 118.56 48.6499 118.56 50.1147V51.5063C118.56 52.9712 118.755 54.3018 119.146 55.498C119.561 56.6943 120.147 57.7197 120.904 58.5742C121.685 59.4043 122.613 60.0513 123.687 60.5151C124.786 60.979 126.031 61.2109 127.422 61.2109C129.107 61.2109 130.767 60.8936 132.403 60.2588C134.039 59.624 135.442 58.5742 136.614 57.1094L142.217 63.7744C141.412 64.9219 140.264 66.0327 138.775 67.1069C137.31 68.1812 135.552 69.0601 133.501 69.7437C131.451 70.4028 129.156 70.7324 126.617 70.7324ZM177.236 70.7324C174.013 70.7324 171.132 70.2319 168.593 69.231C166.054 68.2056 163.906 66.8018 162.148 65.0195C160.415 63.2373 159.084 61.1865 158.156 58.8672C157.253 56.5479 156.801 54.0942 156.801 51.5063V50.1147C156.801 47.2095 157.204 44.5239 158.01 42.0581C158.815 39.5679 160.012 37.395 161.599 35.5396C163.186 33.6841 165.175 32.2437 167.568 31.2183C169.96 30.1685 172.744 29.6436 175.917 29.6436C178.725 29.6436 181.24 30.0952 183.461 30.9985C185.683 31.9019 187.563 33.1958 189.101 34.8804C190.664 36.5649 191.848 38.6035 192.653 40.9961C193.483 43.3887 193.898 46.0742 193.898 49.0527V54.0698H161.525V46.3428H181.85V45.3906C181.875 44.0723 181.643 42.9492 181.154 42.0215C180.69 41.0938 180.007 40.3857 179.104 39.8975C178.2 39.4092 177.102 39.165 175.808 39.165C174.465 39.165 173.354 39.458 172.475 40.0439C171.621 40.6299 170.949 41.4355 170.461 42.4609C169.997 43.4619 169.667 44.6216 169.472 45.9399C169.277 47.2583 169.179 48.6499 169.179 50.1147V51.5063C169.179 52.9712 169.375 54.3018 169.765 55.498C170.18 56.6943 170.766 57.7197 171.523 58.5742C172.304 59.4043 173.232 60.0513 174.306 60.5151C175.405 60.979 176.65 61.2109 178.042 61.2109C179.726 61.2109 181.386 60.8936 183.022 60.2588C184.658 59.624 186.062 58.5742 187.233 57.1094L192.836 63.7744C192.031 64.9219 190.883 66.0327 189.394 67.1069C187.929 68.1812 186.171 69.0601 184.121 69.7437C182.07 70.4028 179.775 70.7324 177.236 70.7324ZM229.54 30.376V38.9453H205.663V30.376H229.54ZM210.68 20.5249H223.021V57.0728C223.021 58.1226 223.143 58.9404 223.387 59.5264C223.631 60.0879 224.046 60.4907 224.632 60.7349C225.243 60.9546 226.048 61.0645 227.049 61.0645C227.757 61.0645 228.343 61.0522 228.807 61.0278C229.271 60.979 229.71 60.918 230.125 60.8447V69.6704C229.076 70.0122 227.977 70.2686 226.83 70.4395C225.682 70.6348 224.461 70.7324 223.167 70.7324C220.531 70.7324 218.272 70.3174 216.393 69.4873C214.537 68.6572 213.121 67.3511 212.145 65.5688C211.168 63.7866 210.68 61.4673 210.68 58.6108V20.5249ZM267.341 60.3687V30.376H279.719V70H268.147L267.341 60.3687ZM268.513 52.312L271.736 52.2388C271.736 54.8999 271.418 57.3657 270.784 59.6362C270.149 61.8823 269.209 63.8354 267.964 65.4956C266.743 67.1558 265.229 68.4497 263.423 69.3774C261.641 70.2808 259.578 70.7324 257.234 70.7324C255.281 70.7324 253.486 70.4639 251.851 69.9268C250.239 69.3652 248.848 68.4985 247.676 67.3267C246.504 66.1304 245.588 64.6045 244.929 62.749C244.294 60.8691 243.977 58.623 243.977 56.0107V30.376H256.318V56.084C256.318 56.9629 256.428 57.7197 256.648 58.3545C256.868 58.9893 257.185 59.5264 257.6 59.9658C258.015 60.3809 258.528 60.6982 259.138 60.918C259.773 61.1133 260.493 61.2109 261.299 61.2109C263.154 61.2109 264.607 60.8203 265.657 60.0391C266.707 59.2578 267.439 58.1958 267.854 56.853C268.293 55.5103 268.513 53.9966 268.513 52.312ZM308.732 37.9932V85.2344H296.391V30.376H307.89L308.732 37.9932ZM333.048 49.7119V50.481C333.048 53.3618 332.719 56.0352 332.06 58.501C331.4 60.9668 330.424 63.1152 329.13 64.9463C327.836 66.7773 326.225 68.2056 324.296 69.231C322.392 70.2319 320.182 70.7324 317.667 70.7324C315.299 70.7324 313.261 70.2075 311.552 69.1577C309.843 68.1079 308.415 66.6553 307.267 64.7998C306.12 62.9443 305.192 60.8203 304.484 58.4277C303.776 56.0352 303.214 53.5083 302.799 50.8472V49.8584C303.214 47.002 303.776 44.353 304.484 41.9116C305.192 39.4458 306.12 37.2974 307.267 35.4663C308.415 33.6353 309.831 32.207 311.515 31.1816C313.224 30.1562 315.263 29.6436 317.631 29.6436C320.146 29.6436 322.355 30.1196 324.259 31.0718C326.188 32.0239 327.799 33.3911 329.093 35.1733C330.412 36.9312 331.4 39.043 332.06 41.5088C332.719 43.9746 333.048 46.709 333.048 49.7119ZM320.707 50.481V49.7119C320.707 48.1738 320.597 46.77 320.377 45.5005C320.158 44.2065 319.804 43.0835 319.315 42.1313C318.852 41.1792 318.229 40.4468 317.448 39.9341C316.667 39.4214 315.702 39.165 314.555 39.165C313.236 39.165 312.125 39.3726 311.222 39.7876C310.343 40.1782 309.635 40.7886 309.098 41.6187C308.585 42.4243 308.219 43.4375 308 44.6582C307.804 45.8545 307.719 47.2583 307.743 48.8696V51.8726C307.694 53.728 307.877 55.3638 308.292 56.7798C308.708 58.1714 309.428 59.2578 310.453 60.0391C311.479 60.8203 312.87 61.2109 314.628 61.2109C315.8 61.2109 316.776 60.9424 317.558 60.4053C318.339 59.8438 318.961 59.0747 319.425 58.0981C319.889 57.0972 320.219 55.9497 320.414 54.6558C320.609 53.3618 320.707 51.9702 320.707 50.481ZM369.056 58.8672C369.056 58.1836 368.824 57.5977 368.36 57.1094C367.92 56.5967 367.139 56.1328 366.016 55.7178C364.893 55.2783 363.318 54.8389 361.292 54.3994C359.363 53.9844 357.544 53.4351 355.835 52.7515C354.151 52.0679 352.674 51.2378 351.404 50.2612C350.135 49.2847 349.134 48.125 348.401 46.7822C347.693 45.4395 347.339 43.9014 347.339 42.168C347.339 40.4834 347.693 38.8965 348.401 37.4072C349.134 35.8936 350.196 34.563 351.587 33.4155C353.003 32.2437 354.725 31.3281 356.751 30.6689C358.777 29.9854 361.084 29.6436 363.672 29.6436C367.237 29.6436 370.313 30.1929 372.901 31.2915C375.489 32.3657 377.479 33.8794 378.87 35.8325C380.286 37.7612 380.994 39.9951 380.994 42.5342H368.653C368.653 41.5332 368.482 40.6787 368.14 39.9707C367.823 39.2627 367.298 38.7256 366.565 38.3594C365.833 37.9688 364.856 37.7734 363.636 37.7734C362.781 37.7734 362 37.9321 361.292 38.2495C360.608 38.5669 360.059 39.0063 359.644 39.5679C359.229 40.1294 359.021 40.7886 359.021 41.5454C359.021 42.0825 359.144 42.5708 359.388 43.0103C359.656 43.4253 360.059 43.8159 360.596 44.1821C361.133 44.5239 361.817 44.8413 362.647 45.1343C363.477 45.4028 364.478 45.647 365.65 45.8667C368.311 46.355 370.801 47.0508 373.121 47.9541C375.44 48.8574 377.32 50.1392 378.76 51.7993C380.225 53.4595 380.958 55.6934 380.958 58.501C380.958 60.2588 380.555 61.8823 379.749 63.3716C378.943 64.8364 377.784 66.1304 376.27 67.2534C374.756 68.3521 372.938 69.2065 370.813 69.8169C368.689 70.4272 366.297 70.7324 363.636 70.7324C359.852 70.7324 356.653 70.061 354.041 68.7183C351.429 67.3511 349.451 65.6421 348.108 63.5913C346.79 61.5161 346.131 59.4165 346.131 57.2925H357.63C357.679 58.5132 357.972 59.5142 358.509 60.2954C359.07 61.0767 359.815 61.6504 360.743 62.0166C361.67 62.3828 362.745 62.5659 363.965 62.5659C365.088 62.5659 366.016 62.4072 366.749 62.0898C367.505 61.7725 368.079 61.3452 368.47 60.8081C368.86 60.2466 369.056 59.5996 369.056 58.8672Z"/>
</mask>
<path d="M38.8638 16.6797V11.6797H31.8829L34.1299 18.2891L38.8638 16.6797ZM49.3374 16.6797L54.0984 15.1522L52.9843 11.6797H49.3374V16.6797ZM61.2393 53.7769L56.4783 55.3043L61.2393 70.1439L66.0002 55.3043L61.2393 53.7769ZM73.1411 16.6797V11.6797H69.4942L68.3801 15.1522L73.1411 16.6797ZM83.6147 16.6797L88.3486 18.2891L90.5957 11.6797H83.6147V16.6797ZM65.4873 70V75H69.0685L70.2212 71.6094L65.4873 70ZM56.9912 70L52.2573 71.6094L53.41 75H56.9912V70ZM32.4917 16.6797V11.6797H27.4917V16.6797H32.4917ZM43.3315 16.6797L48.3255 16.4336L48.0912 11.6797H43.3315V16.6797ZM45.3457 57.5488H50.3457V57.4257L50.3396 57.3027L45.3457 57.5488ZM45.3457 70V75H50.3457V70H45.3457ZM32.4917 70H27.4917V75H32.4917V70ZM79.147 16.6797V11.6797H74.3873L74.153 16.4336L79.147 16.6797ZM90.0234 16.6797H95.0234V11.6797H90.0234V16.6797ZM90.0234 70V75H95.0234V70H90.0234ZM77.1328 70H72.1328V75H77.1328V70ZM77.1328 57.5488L72.1389 57.3027L72.1328 57.4257V57.5488H77.1328ZM38.8638 21.6797H49.3374V11.6797H38.8638V21.6797ZM44.5764 18.2071L56.4783 55.3043L66.0002 52.2494L54.0984 15.1522L44.5764 18.2071ZM66.0002 55.3043L77.9021 18.2071L68.3801 15.1522L56.4783 52.2494L66.0002 55.3043ZM73.1411 21.6797H83.6147V11.6797H73.1411V21.6797ZM78.8808 15.0703L60.7534 68.3906L70.2212 71.6094L88.3486 18.2891L78.8808 15.0703ZM65.4873 65H56.9912V75H65.4873V65ZM61.7251 68.3906L43.5977 15.0703L34.1299 18.2891L52.2573 71.6094L61.7251 68.3906ZM32.4917 21.6797H43.3315V11.6797H32.4917V21.6797ZM38.3376 16.9258L40.3518 57.7949L50.3396 57.3027L48.3255 16.4336L38.3376 16.9258ZM40.3457 57.5488V70H50.3457V57.5488H40.3457ZM45.3457 65H32.4917V75H45.3457V65ZM37.4917 70V16.6797H27.4917V70H37.4917ZM79.147 21.6797H90.0234V11.6797H79.147V21.6797ZM85.0234 16.6797V70H95.0234V16.6797H85.0234ZM90.0234 65H77.1328V75H90.0234V65ZM82.1328 70V57.5488H72.1328V70H82.1328ZM82.1268 57.7949L84.1409 16.9258L74.153 16.4336L72.1389 57.3027L82.1268 57.7949ZM117.974 69.231L116.102 73.8672L116.121 73.8749L116.14 73.8825L117.974 69.231ZM111.529 65.0195L107.945 68.5056L107.957 68.5182L107.969 68.5306L111.529 65.0195ZM107.537 58.8672L102.878 60.6818L102.886 60.703L102.895 60.7241L107.537 58.8672ZM107.391 42.0581L112.143 43.611L112.146 43.6041L112.148 43.5972L107.391 42.0581ZM116.949 31.2183L118.918 35.814L118.938 35.8055L118.958 35.7969L116.949 31.2183ZM138.482 34.8804L134.79 38.2517L134.803 38.2662L134.816 38.2806L138.482 34.8804ZM142.034 40.9961L137.296 42.5917L137.303 42.6134L137.31 42.635L142.034 40.9961ZM143.279 54.0698V59.0698H148.279V54.0698H143.279ZM110.906 54.0698H105.906V59.0698H110.906V54.0698ZM110.906 46.3428V41.3428H105.906V46.3428H110.906ZM131.231 46.3428V51.3428H136.231V46.3428H131.231ZM131.231 45.3906L126.232 45.298L126.231 45.3443V45.3906H131.231ZM130.535 42.0215L126.063 44.2576L126.086 44.3041L126.111 44.3502L130.535 42.0215ZM121.856 40.0439L119.082 35.8837L119.055 35.9018L119.028 35.9203L121.856 40.0439ZM119.842 42.4609L115.327 40.3113L115.316 40.3349L115.305 40.3586L119.842 42.4609ZM119.146 55.498L114.393 57.0501L114.407 57.0936L114.422 57.1369L119.146 55.498ZM120.904 58.5742L117.161 61.8894L117.211 61.946L117.263 62.001L120.904 58.5742ZM123.687 60.5151L121.705 65.1054L121.723 65.1135L121.742 65.1214L123.687 60.5151ZM136.614 57.1094L140.442 53.8919L136.518 49.2252L132.71 53.9859L136.614 57.1094ZM142.217 63.7744L146.309 66.6476L148.519 63.5005L146.045 60.557L142.217 63.7744ZM138.775 67.1069L135.85 63.0518L135.834 63.0633L135.818 63.0749L138.775 67.1069ZM133.501 69.7437L135.032 74.5038L135.057 74.4956L135.083 74.4871L133.501 69.7437ZM126.617 65.7324C123.91 65.7324 121.668 65.3126 119.808 64.5794L116.14 73.8825C119.359 75.1513 122.878 75.7324 126.617 75.7324V65.7324ZM119.846 64.5947C117.881 63.801 116.323 62.7603 115.089 61.5085L107.969 68.5306C110.25 70.8432 112.989 72.6102 116.102 73.8672L119.846 64.5947ZM115.113 61.5334C113.838 60.2222 112.866 58.7255 112.179 57.0102L102.895 60.7241C104.064 63.6475 105.753 66.2525 107.945 68.5056L115.113 61.5334ZM112.196 57.0526C111.527 55.3346 111.182 53.4985 111.182 51.5063H101.182C101.182 54.69 101.74 57.7611 102.878 60.6818L112.196 57.0526ZM111.182 51.5063V50.1147H101.182V51.5063H111.182ZM111.182 50.1147C111.182 47.6744 111.52 45.5193 112.143 43.611L102.638 40.5052C101.65 43.5286 101.182 46.7446 101.182 50.1147H111.182ZM112.148 43.5972C112.765 41.6891 113.651 40.1081 114.779 38.7894L107.18 32.2897C105.134 34.6819 103.627 37.4467 102.633 40.519L112.148 43.5972ZM114.779 38.7894C115.835 37.5553 117.183 36.5576 118.918 35.814L114.979 26.6225C111.929 27.9297 109.298 29.8129 107.18 32.2897L114.779 38.7894ZM118.958 35.7969C120.596 35.0779 122.671 34.6436 125.298 34.6436V24.6436C121.578 24.6436 118.086 25.259 114.94 26.6396L118.958 35.7969ZM125.298 34.6436C127.569 34.6436 129.428 35.008 130.959 35.6303L134.726 26.3668C131.813 25.1825 128.643 24.6436 125.298 24.6436V34.6436ZM130.959 35.6303C132.528 36.2681 133.779 37.1449 134.79 38.2517L142.174 31.509C140.109 29.2467 137.6 27.5356 134.726 26.3668L130.959 35.6303ZM134.816 38.2806C135.852 39.397 136.693 40.803 137.296 42.5917L146.773 39.4005C145.764 36.404 144.237 33.7329 142.148 31.4802L134.816 38.2806ZM137.31 42.635C137.929 44.4169 138.279 46.5361 138.279 49.0527H148.279C148.279 45.6123 147.8 42.3605 146.758 39.3572L137.31 42.635ZM138.279 49.0527V54.0698H148.279V49.0527H138.279ZM143.279 49.0698H110.906V59.0698H143.279V49.0698ZM115.906 54.0698V46.3428H105.906V54.0698H115.906ZM110.906 51.3428H131.231V41.3428H110.906V51.3428ZM136.231 46.3428V45.3906H126.231V46.3428H136.231ZM136.23 45.4832C136.266 43.5355 135.929 41.5347 134.96 39.6928L126.111 44.3502C126.118 44.3638 126.245 44.609 126.232 45.298L136.23 45.4832ZM135.007 39.7854C134.089 37.9488 132.679 36.481 130.862 35.4989L126.107 44.296C126.119 44.3028 126.119 44.3039 126.111 44.2975C126.102 44.291 126.09 44.2808 126.078 44.2677C126.065 44.2545 126.057 44.2437 126.053 44.2383C126.049 44.2331 126.053 44.2381 126.063 44.2576L135.007 39.7854ZM130.862 35.4989C129.062 34.5262 127.101 34.165 125.188 34.165V44.165C125.864 44.165 126.1 44.2922 126.107 44.296L130.862 35.4989ZM125.188 34.165C123.125 34.165 120.98 34.6189 119.082 35.8837L124.629 44.2042C124.572 44.2428 124.555 44.2376 124.623 44.2194C124.7 44.1993 124.877 44.165 125.188 44.165V34.165ZM119.028 35.9203C117.379 37.0513 116.157 38.5695 115.327 40.3113L124.356 44.6106C124.503 44.3016 124.624 44.2085 124.684 44.1676L119.028 35.9203ZM115.305 40.3586C114.603 41.8734 114.158 43.51 113.907 45.2072L123.799 46.6727C123.938 45.7332 124.153 45.0504 124.378 44.5632L115.305 40.3586ZM113.907 45.2072C113.672 46.7906 113.56 48.4285 113.56 50.1147H123.56C123.56 48.8713 123.643 47.726 123.799 46.6727L113.907 45.2072ZM113.56 50.1147V51.5063H123.56V50.1147H113.56ZM113.56 51.5063C113.56 53.4138 113.814 55.2782 114.393 57.0501L123.899 53.946C123.696 53.3253 123.56 52.5286 123.56 51.5063H113.56ZM114.422 57.1369C115.028 58.8831 115.926 60.4948 117.161 61.8894L124.647 55.259C124.368 54.9447 124.094 54.5055 123.87 53.8592L114.422 57.1369ZM117.263 62.001C118.524 63.3414 120.021 64.3784 121.705 65.1054L125.669 55.9248C125.205 55.7242 124.846 55.4672 124.545 55.1474L117.263 62.001ZM121.742 65.1214C123.55 65.8848 125.473 66.2109 127.422 66.2109V56.2109C126.589 56.2109 126.021 56.0732 125.632 55.9089L121.742 65.1214ZM127.422 66.2109C129.751 66.2109 132.024 65.7693 134.212 64.9201L130.594 55.5975C129.511 56.0178 128.463 56.2109 127.422 56.2109V66.2109ZM134.212 64.9201C136.726 63.9443 138.835 62.3368 140.519 60.2329L132.71 53.9859C132.049 54.8117 131.351 55.3037 130.594 55.5975L134.212 64.9201ZM132.787 60.3268L138.39 66.9919L146.045 60.557L140.442 53.8919L132.787 60.3268ZM138.125 60.9013C137.722 61.4759 137.019 62.2085 135.85 63.0518L141.7 71.1621C143.509 69.857 145.101 68.3679 146.309 66.6476L138.125 60.9013ZM135.818 63.0749C134.843 63.7901 133.569 64.4506 131.92 65.0002L135.083 74.4871C137.535 73.6695 139.777 72.5722 141.732 71.139L135.818 63.0749ZM131.971 64.9835C130.494 65.4583 128.727 65.7324 126.617 65.7324V75.7324C129.585 75.7324 132.407 75.3474 135.032 74.5038L131.971 64.9835ZM168.593 69.231L166.721 73.8672L166.74 73.8749L166.759 73.8825L168.593 69.231ZM162.148 65.0195L158.564 68.5056L158.576 68.5182L158.588 68.5306L162.148 65.0195ZM158.156 58.8672L153.497 60.6818L153.505 60.703L153.514 60.7241L158.156 58.8672ZM158.01 42.0581L162.763 43.611L162.765 43.6041L162.767 43.5972L158.01 42.0581ZM167.568 31.2183L169.537 35.814L169.557 35.8055L169.577 35.7969L167.568 31.2183ZM189.101 34.8804L185.409 38.2517L185.422 38.2662L185.435 38.2806L189.101 34.8804ZM192.653 40.9961L187.915 42.5917L187.922 42.6134L187.93 42.635L192.653 40.9961ZM193.898 54.0698V59.0698H198.898V54.0698H193.898ZM161.525 54.0698H156.525V59.0698H161.525V54.0698ZM161.525 46.3428V41.3428H156.525V46.3428H161.525ZM181.85 46.3428V51.3428H186.85V46.3428H181.85ZM181.85 45.3906L176.851 45.298L176.85 45.3443V45.3906H181.85ZM181.154 42.0215L176.682 44.2576L176.705 44.3041L176.73 44.3502L181.154 42.0215ZM172.475 40.0439L169.702 35.8837L169.674 35.9018L169.647 35.9203L172.475 40.0439ZM170.461 42.4609L165.947 40.3113L165.935 40.3349L165.924 40.3586L170.461 42.4609ZM169.765 55.498L165.012 57.0501L165.026 57.0936L165.041 57.1369L169.765 55.498ZM171.523 58.5742L167.78 61.8894L167.83 61.946L167.882 62.001L171.523 58.5742ZM174.306 60.5151L172.324 65.1054L172.343 65.1135L172.361 65.1214L174.306 60.5151ZM187.233 57.1094L191.061 53.8919L187.138 49.2252L183.329 53.9859L187.233 57.1094ZM192.836 63.7744L196.928 66.6476L199.138 63.5005L196.664 60.557L192.836 63.7744ZM189.394 67.1069L186.469 63.0518L186.453 63.0633L186.437 63.0749L189.394 67.1069ZM184.121 69.7437L185.651 74.5038L185.676 74.4956L185.702 74.4871L184.121 69.7437ZM177.236 65.7324C174.53 65.7324 172.287 65.3126 170.427 64.5794L166.759 73.8825C169.978 75.1513 173.497 75.7324 177.236 75.7324V65.7324ZM170.466 64.5947C168.5 63.801 166.942 62.7603 165.708 61.5085L158.588 68.5306C160.869 70.8432 163.608 72.6102 166.721 73.8672L170.466 64.5947ZM165.732 61.5334C164.457 60.2222 163.485 58.7255 162.799 57.0102L153.514 60.7241C154.683 63.6475 156.372 66.2525 158.564 68.5056L165.732 61.5334ZM162.815 57.0526C162.146 55.3346 161.801 53.4985 161.801 51.5063H151.801C151.801 54.69 152.36 57.7611 153.497 60.6818L162.815 57.0526ZM161.801 51.5063V50.1147H151.801V51.5063H161.801ZM161.801 50.1147C161.801 47.6744 162.139 45.5193 162.763 43.611L153.257 40.5052C152.269 43.5286 151.801 46.7446 151.801 50.1147H161.801ZM162.767 43.5972C163.384 41.6891 164.271 40.1081 165.398 38.7894L157.799 32.2897C155.753 34.6819 154.247 37.4467 153.253 40.519L162.767 43.5972ZM165.398 38.7894C166.454 37.5553 167.802 36.5576 169.537 35.814L165.598 26.6225C162.548 27.9297 159.917 29.8129 157.799 32.2897L165.398 38.7894ZM169.577 35.7969C171.215 35.0779 173.29 34.6436 175.917 34.6436V24.6436C172.197 24.6436 168.705 25.259 165.559 26.6396L169.577 35.7969ZM175.917 34.6436C178.188 34.6436 180.048 35.008 181.578 35.6303L185.345 26.3668C182.432 25.1825 179.262 24.6436 175.917 24.6436V34.6436ZM181.578 35.6303C183.147 36.2681 184.398 37.1449 185.409 38.2517L192.794 31.509C190.728 29.2467 188.219 27.5356 185.345 26.3668L181.578 35.6303ZM185.435 38.2806C186.471 39.397 187.312 40.803 187.915 42.5917L197.392 39.4005C196.383 36.404 194.856 33.7329 192.767 31.4802L185.435 38.2806ZM187.93 42.635C188.548 44.4169 188.898 46.5361 188.898 49.0527H198.898C198.898 45.6123 198.419 42.3605 197.377 39.3572L187.93 42.635ZM188.898 49.0527V54.0698H198.898V49.0527H188.898ZM193.898 49.0698H161.525V59.0698H193.898V49.0698ZM166.525 54.0698V46.3428H156.525V54.0698H166.525ZM161.525 51.3428H181.85V41.3428H161.525V51.3428ZM186.85 46.3428V45.3906H176.85V46.3428H186.85ZM186.849 45.4832C186.885 43.5355 186.548 41.5347 185.579 39.6928L176.73 44.3502C176.737 44.3638 176.864 44.609 176.851 45.298L186.849 45.4832ZM185.626 39.7854C184.708 37.9488 183.298 36.481 181.481 35.4989L176.726 44.296C176.738 44.3028 176.738 44.3039 176.73 44.2975C176.721 44.291 176.709 44.2808 176.697 44.2677C176.684 44.2545 176.676 44.2437 176.672 44.2383C176.668 44.2331 176.672 44.2381 176.682 44.2576L185.626 39.7854ZM181.481 35.4989C179.682 34.5262 177.72 34.165 175.808 34.165V44.165C176.483 44.165 176.719 44.2922 176.726 44.296L181.481 35.4989ZM175.808 34.165C173.744 34.165 171.599 34.6189 169.702 35.8837L175.249 44.2042C175.191 44.2428 175.174 44.2376 175.242 44.2194C175.319 44.1993 175.496 44.165 175.808 44.165V34.165ZM169.647 35.9203C167.998 37.0513 166.776 38.5695 165.947 40.3113L174.975 44.6106C175.122 44.3016 175.243 44.2085 175.303 44.1676L169.647 35.9203ZM165.924 40.3586C165.222 41.8734 164.778 43.51 164.526 45.2072L174.418 46.6727C174.557 45.7332 174.772 45.0504 174.997 44.5632L165.924 40.3586ZM164.526 45.2072C164.292 46.7906 164.179 48.4285 164.179 50.1147H174.179C174.179 48.8713 174.262 47.726 174.418 46.6727L164.526 45.2072ZM164.179 50.1147V51.5063H174.179V50.1147H164.179ZM164.179 51.5063C164.179 53.4138 164.434 55.2782 165.012 57.0501L174.518 53.946C174.315 53.3253 174.179 52.5286 174.179 51.5063H164.179ZM165.041 57.1369C165.647 58.8831 166.545 60.4948 167.78 61.8894L175.266 55.259C174.987 54.9447 174.713 54.5055 174.489 53.8592L165.041 57.1369ZM167.882 62.001C169.143 63.3414 170.64 64.3784 172.324 65.1054L176.288 55.9248C175.824 55.7242 175.465 55.4672 175.164 55.1474L167.882 62.001ZM172.361 65.1214C174.169 65.8848 176.092 66.2109 178.042 66.2109V56.2109C177.208 56.2109 176.64 56.0732 176.251 55.9089L172.361 65.1214ZM178.042 66.2109C180.37 66.2109 182.643 65.7693 184.831 64.9201L181.213 55.5975C180.13 56.0178 179.082 56.2109 178.042 56.2109V66.2109ZM184.831 64.9201C187.345 63.9443 189.455 62.3368 191.138 60.2329L183.329 53.9859C182.668 54.8117 181.97 55.3037 181.213 55.5975L184.831 64.9201ZM183.406 60.3268L189.009 66.9919L196.664 60.557L191.061 53.8919L183.406 60.3268ZM188.744 60.9013C188.341 61.4759 187.638 62.2085 186.469 63.0518L192.319 71.1621C194.128 69.857 195.721 68.3679 196.928 66.6476L188.744 60.9013ZM186.437 63.0749C185.462 63.7901 184.188 64.4506 182.539 65.0002L185.702 74.4871C188.154 73.6695 190.396 72.5722 192.351 71.139L186.437 63.0749ZM182.591 64.9835C181.113 65.4583 179.346 65.7324 177.236 65.7324V75.7324C180.204 75.7324 183.026 75.3474 185.651 74.5038L182.591 64.9835ZM229.54 30.376H234.54V25.376H229.54V30.376ZM229.54 38.9453V43.9453H234.54V38.9453H229.54ZM205.663 38.9453H200.663V43.9453H205.663V38.9453ZM205.663 30.376V25.376H200.663V30.376H205.663ZM210.68 20.5249V15.5249H205.68V20.5249H210.68ZM223.021 20.5249H228.021V15.5249H223.021V20.5249ZM223.387 59.5264L218.772 61.4494L218.787 61.4848L218.802 61.52L223.387 59.5264ZM224.632 60.7349L222.709 65.3502L222.823 65.3976L222.939 65.4393L224.632 60.7349ZM228.807 61.0278L229.07 66.0209L229.201 66.014L229.331 66.0004L228.807 61.0278ZM230.125 60.8447H235.125V54.8851L229.257 55.9208L230.125 60.8447ZM230.125 69.6704L231.673 74.4248L235.125 73.3008V69.6704H230.125ZM226.83 70.4395L226.093 65.494L226.042 65.5016L225.991 65.5103L226.83 70.4395ZM216.393 69.4873L214.351 74.0514L214.362 74.0563L214.373 74.0612L216.393 69.4873ZM224.54 30.376V38.9453H234.54V30.376H224.54ZM229.54 33.9453H205.663V43.9453H229.54V33.9453ZM210.663 38.9453V30.376H200.663V38.9453H210.663ZM205.663 35.376H229.54V25.376H205.663V35.376ZM210.68 25.5249H223.021V15.5249H210.68V25.5249ZM218.021 20.5249V57.0728H228.021V20.5249H218.021ZM218.021 57.0728C218.021 58.4069 218.161 59.9833 218.772 61.4494L228.003 57.6033C228.078 57.7846 228.075 57.8527 228.058 57.7354C228.041 57.6256 228.021 57.413 228.021 57.0728H218.021ZM218.802 61.52C219.582 63.314 220.979 64.6293 222.709 65.3502L226.555 56.1195C226.785 56.2154 227.079 56.385 227.364 56.6617C227.652 56.941 227.85 57.2508 227.973 57.5327L218.802 61.52ZM222.939 65.4393C224.304 65.9308 225.75 66.0645 227.049 66.0645V56.0645C226.725 56.0645 226.505 56.0463 226.37 56.0279C226.231 56.009 226.231 55.9962 226.326 56.0304L222.939 65.4393ZM227.049 66.0645C227.805 66.0645 228.486 66.0517 229.07 66.0209L228.544 56.0347C228.201 56.0528 227.71 56.0645 227.049 56.0645V66.0645ZM229.331 66.0004C229.898 65.9406 230.453 65.8641 230.994 65.7686L229.257 55.9208C228.967 55.9718 228.644 56.0174 228.284 56.0553L229.331 66.0004ZM225.125 60.8447V69.6704H235.125V60.8447H225.125ZM228.578 64.9161C227.805 65.1674 226.979 65.362 226.093 65.494L227.566 75.3849C228.975 75.1751 230.346 74.857 231.673 74.4248L228.578 64.9161ZM225.991 65.5103C225.149 65.6536 224.211 65.7324 223.167 65.7324V75.7324C224.712 75.7324 226.215 75.6159 227.669 75.3686L225.991 65.5103ZM223.167 65.7324C221.037 65.7324 219.503 65.395 218.412 64.9134L214.373 74.0612C217.042 75.2398 220.024 75.7324 223.167 75.7324V65.7324ZM218.434 64.9232C217.575 64.5386 216.982 63.9914 216.529 63.1662L207.76 67.9715C209.261 70.7108 211.5 72.7759 214.351 74.0514L218.434 64.9232ZM216.529 63.1662C216.087 62.3588 215.68 60.9492 215.68 58.6108H205.68C205.68 61.9854 206.249 65.2145 207.76 67.9715L216.529 63.1662ZM215.68 58.6108V20.5249H205.68V58.6108H215.68ZM267.341 60.3687H262.341V60.5774L262.359 60.7854L267.341 60.3687ZM267.341 30.376V25.376H262.341V30.376H267.341ZM279.719 30.376H284.719V25.376H279.719V30.376ZM279.719 70V75H284.719V70H279.719ZM268.147 70L263.164 70.4168L263.548 75H268.147V70ZM268.513 52.312L268.4 47.3133L263.513 47.4244V52.312H268.513ZM271.736 52.2388H276.736V47.1238L271.622 47.2401L271.736 52.2388ZM270.784 59.6362L275.595 60.996L275.599 60.9825L270.784 59.6362ZM267.964 65.4956L263.964 62.4956L263.95 62.5146L263.936 62.5337L267.964 65.4956ZM263.423 69.3774L265.683 73.8373L265.695 73.8313L265.707 73.8253L263.423 69.3774ZM251.851 69.9268L250.205 74.6483L250.248 74.6631L250.291 74.6772L251.851 69.9268ZM247.676 67.3267L244.104 70.8256L244.122 70.844L244.14 70.8622L247.676 67.3267ZM244.929 62.749L240.192 64.3486L240.205 64.3858L240.218 64.4228L244.929 62.749ZM243.977 30.376V25.376H238.977V30.376H243.977ZM256.318 30.376H261.318V25.376H256.318V30.376ZM257.6 59.9658L253.965 63.3989L254.014 63.4509L254.065 63.5014L257.6 59.9658ZM259.138 60.918L257.445 65.6224L257.555 65.6623L257.668 65.6969L259.138 60.918ZM267.854 56.853L263.102 55.2978L263.089 55.3371L263.077 55.3765L267.854 56.853ZM272.341 60.3687V30.376H262.341V60.3687H272.341ZM267.341 35.376H279.719V25.376H267.341V35.376ZM274.719 30.376V70H284.719V30.376H274.719ZM279.719 65H268.147V75H279.719V65ZM273.13 69.5832L272.324 59.9519L262.359 60.7854L263.164 70.4168L273.13 69.5832ZM268.627 57.3107L271.849 57.2375L271.622 47.2401L268.4 47.3133L268.627 57.3107ZM266.736 52.2388C266.736 54.5024 266.466 56.5099 265.968 58.29L275.599 60.9825C276.371 58.2216 276.736 55.2974 276.736 52.2388H266.736ZM265.972 58.2764C265.484 60.0039 264.797 61.3851 263.964 62.4956L271.964 68.4956C273.621 66.2857 274.814 63.7607 275.595 60.996L265.972 58.2764ZM263.936 62.5337C263.167 63.5796 262.246 64.3608 261.139 64.9296L265.707 73.8253C268.212 72.5386 270.32 70.7319 271.992 68.4576L263.936 62.5337ZM261.162 64.9176C260.192 65.4092 258.928 65.7324 257.234 65.7324V75.7324C260.228 75.7324 263.089 75.1523 265.683 73.8373L261.162 64.9176ZM257.234 65.7324C255.74 65.7324 254.48 65.5275 253.41 65.1763L250.291 74.6772C252.493 75.4002 254.821 75.7324 257.234 75.7324V65.7324ZM253.496 65.2052C252.574 64.884 251.834 64.4143 251.211 63.7911L244.14 70.8622C245.861 72.5828 247.904 73.8464 250.205 74.6483L253.496 65.2052ZM251.248 63.8278C250.665 63.2332 250.099 62.3659 249.641 61.0752L240.218 64.4228C241.077 66.843 242.343 69.0275 244.104 70.8256L251.248 63.8278ZM249.666 61.1494C249.251 59.9188 248.977 58.2411 248.977 56.0107H238.977C238.977 59.005 239.338 61.8195 240.192 64.3486L249.666 61.1494ZM248.977 56.0107V30.376H238.977V56.0107H248.977ZM243.977 35.376H256.318V25.376H243.977V35.376ZM251.318 30.376V56.084H261.318V30.376H251.318ZM251.318 56.084C251.318 57.3576 251.475 58.6953 251.923 59.99L261.373 56.7189C261.382 56.7442 261.318 56.5682 261.318 56.084H251.318ZM251.923 59.99C252.349 61.2195 253.012 62.3896 253.965 63.3989L261.235 56.5327C261.291 56.5922 261.331 56.6481 261.355 56.6898C261.379 56.7301 261.382 56.7443 261.373 56.7189L251.923 59.99ZM254.065 63.5014C255.053 64.4895 256.215 65.1799 257.445 65.6224L260.832 56.2135C260.83 56.2128 260.867 56.226 260.928 56.2638C260.99 56.3025 261.063 56.3578 261.136 56.4303L254.065 63.5014ZM257.668 65.6969C258.868 66.0661 260.097 66.2109 261.299 66.2109V56.2109C260.889 56.2109 260.678 56.1605 260.609 56.1391L257.668 65.6969ZM261.299 66.2109C263.794 66.2109 266.435 65.6925 268.642 64.0502L262.672 56.0279C262.779 55.9481 262.515 56.2109 261.299 56.2109V66.2109ZM268.642 64.0502C270.607 62.5877 271.927 60.6065 272.631 58.3296L263.077 55.3765C262.951 55.7851 262.806 55.9279 262.672 56.0279L268.642 64.0502ZM272.606 58.4082C273.238 56.4776 273.513 54.4263 273.513 52.312H263.513C263.513 53.5669 263.349 54.5429 263.102 55.2978L272.606 58.4082ZM308.732 37.9932H313.732V37.7176L313.702 37.4436L308.732 37.9932ZM308.732 85.2344V90.2344H313.732V85.2344H308.732ZM296.391 85.2344H291.391V90.2344H296.391V85.2344ZM296.391 30.376V25.376H291.391V30.376H296.391ZM307.89 30.376L312.859 29.8264L312.367 25.376H307.89V30.376ZM324.296 69.231L326.622 73.6568L326.633 73.6513L326.643 73.6458L324.296 69.231ZM302.799 50.8472H297.799V51.2347L297.859 51.6177L302.799 50.8472ZM302.799 49.8584L297.851 49.1395L297.799 49.497V49.8584H302.799ZM304.484 41.9116L309.286 43.3042L309.29 43.2915L304.484 41.9116ZM311.515 31.1816L308.943 26.8942L308.929 26.9024L308.915 26.9106L311.515 31.1816ZM324.259 31.0718L322.023 35.5439L322.035 35.5496L322.046 35.5552L324.259 31.0718ZM329.093 35.1733L325.047 38.1109L325.07 38.1423L325.093 38.1733L329.093 35.1733ZM320.377 45.5005L315.448 46.3376L315.449 46.3454L315.451 46.3532L320.377 45.5005ZM319.315 42.1313L314.82 44.3212L314.843 44.3673L314.866 44.4129L319.315 42.1313ZM311.222 39.7876L313.253 44.3567L313.281 44.344L313.31 44.331L311.222 39.7876ZM309.098 41.6187L304.9 38.9024L304.89 38.9183L304.88 38.9343L309.098 41.6187ZM308 44.6582L303.079 43.7724L303.071 43.8124L303.065 43.8525L308 44.6582ZM307.743 48.8696H312.743V48.8318L312.743 48.7939L307.743 48.8696ZM307.743 51.8726L312.741 52.0041L312.743 51.9383V51.8726H307.743ZM308.292 56.7798L303.494 58.1861L303.498 58.1975L303.501 58.2088L308.292 56.7798ZM317.558 60.4053L320.39 64.5255L320.433 64.4959L320.476 64.4654L317.558 60.4053ZM319.425 58.0981L323.942 60.2434L323.952 60.222L323.962 60.2004L319.425 58.0981ZM303.732 37.9932V85.2344H313.732V37.9932H303.732ZM308.732 80.2344H296.391V90.2344H308.732V80.2344ZM301.391 85.2344V30.376H291.391V85.2344H301.391ZM296.391 35.376H307.89V25.376H296.391V35.376ZM302.92 30.9255L303.762 38.5427L313.702 37.4436L312.859 29.8264L302.92 30.9255ZM328.048 49.7119V50.481H338.048V49.7119H328.048ZM328.048 50.481C328.048 52.9808 327.762 55.2151 327.229 57.2097L336.89 59.7923C337.675 56.8552 338.048 53.7428 338.048 50.481H328.048ZM327.229 57.2097C326.702 59.1823 325.955 60.7747 325.047 62.0607L333.213 67.8318C334.892 65.4558 336.099 62.7513 336.89 59.7923L327.229 57.2097ZM325.047 62.0607C324.191 63.2708 323.168 64.1676 321.949 64.8161L326.643 73.6458C329.281 72.2435 331.48 70.2839 333.213 67.8318L325.047 62.0607ZM321.97 64.8051C320.895 65.37 319.509 65.7324 317.667 65.7324V75.7324C320.856 75.7324 323.888 75.0939 326.622 73.6568L321.97 64.8051ZM317.667 65.7324C316.054 65.7324 314.958 65.3821 314.169 64.8973L308.935 73.4181C311.563 75.0329 314.544 75.7324 317.667 75.7324V65.7324ZM314.169 64.8973C313.182 64.291 312.293 63.4211 311.52 62.17L303.015 67.4297C304.536 69.8895 306.504 71.9248 308.935 73.4181L314.169 64.8973ZM311.52 62.17C310.636 60.7419 309.878 59.0354 309.278 57.009L299.689 59.8465C300.506 62.6052 301.603 65.1467 303.015 67.4297L311.52 62.17ZM309.278 57.009C308.638 54.845 308.123 52.5358 307.74 50.0767L297.859 51.6177C298.306 54.4808 298.914 57.2253 299.689 59.8465L309.278 57.009ZM307.799 50.8472V49.8584H297.799V50.8472H307.799ZM307.747 50.5773C308.134 47.9186 308.65 45.4975 309.286 43.3042L299.682 40.519C298.902 43.2086 298.295 46.0853 297.851 49.1395L307.747 50.5773ZM309.29 43.2915C309.892 41.1938 310.646 39.4902 311.504 38.1214L303.03 32.8112C301.593 35.1046 300.492 37.6978 299.678 40.5317L309.29 43.2915ZM311.504 38.1214C312.279 36.8848 313.156 36.0364 314.115 35.4526L308.915 26.9106C306.505 28.3777 304.55 30.3857 303.03 32.8112L311.504 38.1214ZM314.088 35.4691C314.884 34.9911 315.997 34.6436 317.631 34.6436V24.6436C314.528 24.6436 311.564 25.3214 308.943 26.8942L314.088 35.4691ZM317.631 34.6436C319.509 34.6436 320.928 34.9964 322.023 35.5439L326.495 26.5996C323.782 25.2428 320.782 24.6436 317.631 24.6436V34.6436ZM322.046 35.5552C323.23 36.1395 324.218 36.9687 325.047 38.1109L333.139 32.2358C331.381 29.8136 329.146 27.9083 326.473 26.5883L322.046 35.5552ZM325.093 38.1733C325.971 39.3442 326.709 40.8532 327.229 42.8001L336.89 40.2175C336.092 37.2327 334.852 34.5181 333.093 32.1733L325.093 38.1733ZM327.229 42.8001C327.758 44.7783 328.048 47.0704 328.048 49.7119H338.048C338.048 46.3475 337.679 43.1709 336.89 40.2175L327.229 42.8001ZM325.707 50.481V49.7119H315.707V50.481H325.707ZM325.707 49.7119C325.707 47.941 325.581 46.2468 325.304 44.6478L315.451 46.3532C315.613 47.2933 315.707 48.4066 315.707 49.7119H325.707ZM325.307 44.6634C325.02 42.9758 324.531 41.3453 323.765 39.8498L314.866 44.4129C315.076 44.8216 315.295 45.4373 315.448 46.3376L325.307 44.6634ZM323.81 39.9415C323.006 38.2906 321.821 36.8235 320.191 35.7538L314.704 44.1143C314.685 44.1017 314.679 44.0927 314.691 44.1062C314.705 44.1225 314.754 44.1841 314.82 44.3212L323.81 39.9415ZM320.191 35.7538C318.426 34.5956 316.453 34.165 314.555 34.165V44.165C314.758 44.165 314.848 44.1879 314.854 44.1895C314.857 44.1902 314.841 44.1861 314.812 44.1733C314.782 44.1602 314.745 44.1409 314.704 44.1143L320.191 35.7538ZM314.555 34.165C312.74 34.165 310.87 34.4471 309.135 35.2442L313.31 44.331C313.381 44.298 313.733 44.165 314.555 44.165V34.165ZM309.191 35.2185C307.4 36.0148 305.949 37.2816 304.9 38.9024L313.296 44.3349C313.31 44.3138 313.317 44.3059 313.316 44.3071C313.314 44.3085 313.308 44.3155 313.297 44.3254C313.285 44.3353 313.273 44.3441 313.263 44.3508C313.252 44.3574 313.248 44.3589 313.253 44.3567L309.191 35.2185ZM304.88 38.9343C303.931 40.4252 303.381 42.0944 303.079 43.7724L312.92 45.544C313.058 44.7806 313.24 44.4234 313.316 44.303L304.88 38.9343ZM303.065 43.8525C302.809 45.4172 302.716 47.1288 302.744 48.9454L312.743 48.7939C312.721 47.3878 312.799 46.2918 312.934 45.4639L303.065 43.8525ZM302.743 48.8696V51.8726H312.743V48.8696H302.743ZM302.745 51.741C302.686 53.9886 302.901 56.1616 303.494 58.1861L313.091 55.3734C312.854 54.566 312.703 53.4675 312.741 52.0041L302.745 51.741ZM303.501 58.2088C304.179 60.4807 305.451 62.5136 307.423 64.0162L313.483 56.0619C313.405 56.0021 313.236 55.862 313.084 55.3508L303.501 58.2088ZM307.423 64.0162C309.587 65.6651 312.168 66.2109 314.628 66.2109V56.2109C313.572 56.2109 313.37 55.9755 313.483 56.0619L307.423 64.0162ZM314.628 66.2109C316.57 66.2109 318.597 65.7584 320.39 64.5255L314.725 56.2851C314.771 56.2531 314.815 56.2292 314.852 56.2124C314.888 56.1958 314.91 56.1893 314.913 56.1885C314.919 56.1871 314.834 56.2109 314.628 56.2109V66.2109ZM320.476 64.4654C322.024 63.3523 323.161 61.887 323.942 60.2434L314.909 55.9529C314.762 56.2624 314.653 56.3352 314.639 56.3452L320.476 64.4654ZM323.962 60.2004C324.658 58.6978 325.105 57.0805 325.358 55.402L315.47 53.9095C315.333 54.8189 315.12 55.4965 314.889 55.9958L323.962 60.2004ZM325.358 55.402C325.595 53.8301 325.707 52.1866 325.707 50.481H315.707C315.707 51.7539 315.623 52.8936 315.47 53.9095L325.358 55.402ZM368.36 57.1094L364.564 60.3633L364.647 60.4604L364.735 60.5531L368.36 57.1094ZM366.016 55.7178L364.194 60.374L364.238 60.3913L364.283 60.4077L366.016 55.7178ZM361.292 54.3994L362.352 49.513L362.344 49.5113L361.292 54.3994ZM355.835 52.7515L353.955 57.3845L353.967 57.3892L353.978 57.3938L355.835 52.7515ZM348.401 46.7822L343.979 49.1143L343.995 49.1455L344.012 49.1765L348.401 46.7822ZM348.401 37.4072L343.901 35.2294L343.893 35.2449L343.886 35.2604L348.401 37.4072ZM351.587 33.4155L354.768 37.2732L354.775 37.2675L351.587 33.4155ZM356.751 30.6689L358.298 35.4237L358.324 35.4153L358.349 35.4066L356.751 30.6689ZM372.901 31.2915L370.947 35.8939L370.965 35.9018L370.984 35.9095L372.901 31.2915ZM378.87 35.8325L374.798 38.7339L374.819 38.7629L374.84 38.7915L378.87 35.8325ZM380.994 42.5342V47.5342H385.994V42.5342H380.994ZM368.653 42.5342H363.653V47.5342H368.653V42.5342ZM368.14 39.9707L363.578 42.016L363.607 42.0806L363.637 42.1444L368.14 39.9707ZM366.565 38.3594L364.212 42.7711L364.271 42.8021L364.329 42.8315L366.565 38.3594ZM361.292 38.2495L359.247 33.687L359.216 33.7005L359.186 33.7145L361.292 38.2495ZM359.388 43.0103L355.017 45.4385L355.099 45.5854L355.19 45.7265L359.388 43.0103ZM360.596 44.1821L357.78 48.3133L357.845 48.3579L357.912 48.4004L360.596 44.1821ZM362.647 45.1343L360.983 49.8492L361.045 49.8712L361.108 49.8915L362.647 45.1343ZM365.65 45.8667L364.728 50.7811L364.738 50.7828L364.748 50.7846L365.65 45.8667ZM378.76 51.7993L374.984 55.0761L374.997 55.0918L375.011 55.1074L378.76 51.7993ZM379.749 63.3716L384.13 65.7812L384.138 65.766L384.147 65.7507L379.749 63.3716ZM376.27 67.2534L379.207 71.2999L379.228 71.2845L379.249 71.2689L376.27 67.2534ZM354.041 68.7183L351.723 73.1482L351.739 73.1568L351.755 73.1652L354.041 68.7183ZM348.108 63.5913L343.888 66.2725L343.906 66.3015L343.925 66.3302L348.108 63.5913ZM346.131 57.2925V52.2925H341.131V57.2925H346.131ZM357.63 57.2925L362.626 57.0926L362.434 52.2925H357.63V57.2925ZM358.509 60.2954L354.389 63.1281L354.418 63.1711L354.449 63.2136L358.509 60.2954ZM366.749 62.0898L364.815 57.4789L364.788 57.4903L364.76 57.5021L366.749 62.0898ZM368.47 60.8081L372.513 63.749L372.544 63.7065L372.574 63.6634L368.47 60.8081ZM374.056 58.8672C374.056 56.9233 373.346 55.0986 371.985 53.6656L364.735 60.5531C364.557 60.3655 364.368 60.0974 364.233 59.7553C364.098 59.4145 364.056 59.1017 364.056 58.8672H374.056ZM372.156 53.8554C370.884 52.3711 369.14 51.5416 367.749 51.0278L364.283 60.4077C364.458 60.4724 364.595 60.5299 364.699 60.578C364.804 60.6264 364.865 60.6604 364.892 60.6762C364.919 60.6924 364.897 60.682 364.843 60.6384C364.788 60.5949 364.686 60.5061 364.564 60.3633L372.156 53.8554ZM367.838 51.0616C366.353 50.4806 364.482 49.9749 362.352 49.513L360.232 59.2858C362.155 59.7028 363.433 60.0761 364.194 60.374L367.838 51.0616ZM362.344 49.5113C360.67 49.1512 359.123 48.6811 357.692 48.1091L353.978 57.3938C355.966 58.189 358.056 58.8175 360.24 59.2875L362.344 49.5113ZM357.716 48.1184C356.394 47.582 355.32 46.9655 354.453 46.2981L348.356 54.2244C350.027 55.5101 351.908 56.5538 353.955 57.3845L357.716 48.1184ZM354.453 46.2981C353.708 45.7251 353.175 45.0915 352.791 44.388L344.012 49.1765C345.093 51.1585 346.562 52.8442 348.356 54.2244L354.453 46.2981ZM352.824 44.4502C352.546 43.9226 352.339 43.205 352.339 42.168H342.339C342.339 44.5978 342.841 46.9563 343.979 49.1143L352.824 44.4502ZM352.339 42.168C352.339 41.2095 352.535 40.3577 352.917 39.554L343.886 35.2604C342.852 37.4352 342.339 39.7573 342.339 42.168H352.339ZM352.902 39.585C353.298 38.7661 353.892 37.9962 354.768 37.2732L348.406 29.5578C346.5 31.1298 344.969 33.021 343.901 35.2294L352.902 39.585ZM354.775 37.2675C355.635 36.5559 356.776 35.9186 358.298 35.4237L355.204 25.9142C352.673 26.7376 350.372 27.9314 348.4 29.5636L354.775 37.2675ZM358.349 35.4066C359.766 34.9288 361.518 34.6436 363.672 34.6436V24.6436C360.651 24.6436 357.789 25.0419 355.153 25.9313L358.349 35.4066ZM363.672 34.6436C366.739 34.6436 369.119 35.1178 370.947 35.8939L374.855 26.6891C371.507 25.268 367.735 24.6436 363.672 24.6436V34.6436ZM370.984 35.9095C372.855 36.6861 374.036 37.6643 374.798 38.7339L382.942 32.9311C380.921 30.0945 378.123 28.0454 374.818 26.6735L370.984 35.9095ZM374.84 38.7915C375.586 39.8081 375.994 40.9903 375.994 42.5342H385.994C385.994 38.9999 384.986 35.7144 382.901 32.8735L374.84 38.7915ZM380.994 37.5342H368.653V47.5342H380.994V37.5342ZM373.653 42.5342C373.653 40.9797 373.389 39.342 372.643 37.797L363.637 42.1444C363.575 42.0155 363.653 42.0867 363.653 42.5342H373.653ZM372.703 37.9254C371.886 36.1029 370.505 34.7388 368.801 33.8872L364.329 42.8315C364.243 42.7881 364.093 42.6955 363.932 42.5315C363.77 42.3649 363.652 42.1814 363.578 42.016L372.703 37.9254ZM368.918 33.9476C367.201 33.0316 365.319 32.7734 363.636 32.7734V42.7734C363.988 42.7734 364.2 42.8023 364.303 42.8228C364.405 42.8432 364.353 42.8462 364.212 42.7711L368.918 33.9476ZM363.636 32.7734C362.148 32.7734 360.661 33.0531 359.247 33.687L363.337 42.8121C363.339 42.8111 363.414 42.7734 363.636 42.7734V32.7734ZM359.186 33.7145C357.806 34.3556 356.575 35.3084 355.623 36.5959L363.665 42.5398C363.613 42.61 363.552 42.6726 363.491 42.7215C363.431 42.7691 363.393 42.7865 363.398 42.7846L359.186 33.7145ZM355.623 36.5959C354.518 38.0912 354.021 39.8136 354.021 41.5454H364.021C364.021 41.6281 364.009 41.7847 363.946 41.9848C363.882 42.189 363.783 42.38 363.665 42.5398L355.623 36.5959ZM354.021 41.5454C354.021 42.8722 354.332 44.2055 355.017 45.4385L363.758 40.582C363.955 40.9361 364.021 41.2928 364.021 41.5454H354.021ZM355.19 45.7265C355.914 46.8464 356.857 47.6843 357.78 48.3133L363.413 40.051C363.345 40.0044 363.339 39.9928 363.372 40.025C363.406 40.0581 363.489 40.145 363.586 40.294L355.19 45.7265ZM357.912 48.4004C358.865 49.0067 359.92 49.4742 360.983 49.8492L364.311 40.4193C363.713 40.2084 363.402 40.0411 363.281 39.9638L357.912 48.4004ZM361.108 49.8915C362.198 50.2443 363.418 50.5353 364.728 50.7811L366.571 40.9523C365.539 40.7587 364.756 40.5614 364.186 40.3771L361.108 49.8915ZM364.748 50.7846C367.124 51.2206 369.306 51.8343 371.306 52.6132L374.935 43.295C372.296 42.2673 369.498 41.4894 366.552 40.9488L364.748 50.7846ZM371.306 52.6132C372.97 53.2613 374.142 54.1063 374.984 55.0761L382.537 48.5225C380.497 46.172 377.91 44.4535 374.935 43.295L371.306 52.6132ZM375.011 55.1074C375.472 55.6296 375.958 56.5746 375.958 58.501H385.958C385.958 54.8121 384.978 51.2894 382.509 48.4912L375.011 55.1074ZM375.958 58.501C375.958 59.4609 375.746 60.2623 375.351 60.9925L384.147 65.7507C385.363 63.5023 385.958 61.0566 385.958 58.501H375.958ZM375.368 60.962C374.95 61.7212 374.301 62.4885 373.291 63.2379L379.249 71.2689C381.266 69.7723 382.936 67.9516 384.13 65.7812L375.368 60.962ZM373.333 63.2069C372.367 63.9082 371.097 64.5331 369.433 65.0114L372.194 74.6224C374.778 73.88 377.146 72.7959 379.207 71.2999L373.333 63.2069ZM369.433 65.0114C367.838 65.4696 365.922 65.7324 363.636 65.7324V75.7324C366.672 75.7324 369.541 75.3849 372.194 74.6224L369.433 65.0114ZM363.636 65.7324C360.424 65.7324 358.058 65.1611 356.327 64.2713L351.755 73.1652C355.249 74.961 359.279 75.7324 363.636 75.7324V65.7324ZM356.36 64.2883C354.35 63.2366 353.081 62.0581 352.291 60.8524L343.925 66.3302C345.821 69.2261 348.507 71.4656 351.723 73.1482L356.36 64.2883ZM352.329 60.9101C351.438 59.5076 351.131 58.3249 351.131 57.2925H341.131C341.131 60.5081 342.142 63.5246 343.888 66.2725L352.329 60.9101ZM346.131 62.2925H357.63V52.2925H346.131V62.2925ZM352.634 57.4923C352.71 59.3874 353.183 61.3744 354.389 63.1281L362.629 57.4628C362.689 57.5506 362.697 57.5963 362.685 57.5542C362.671 57.5058 362.637 57.3626 362.626 57.0926L352.634 57.4923ZM354.449 63.2136C355.591 64.8034 357.121 65.9626 358.907 66.6674L362.579 57.3658C362.549 57.3543 362.535 57.3463 362.531 57.3443C362.529 57.3432 362.529 57.3432 362.531 57.3445C362.533 57.3457 362.536 57.3479 362.54 57.3509C362.544 57.354 362.548 57.3575 362.553 57.3614C362.557 57.3653 362.561 57.369 362.564 57.3724C362.567 57.3757 362.569 57.3781 362.57 57.3793C362.571 57.3805 362.571 57.3799 362.569 57.3772L354.449 63.2136ZM358.907 66.6674C360.534 67.3096 362.253 67.5659 363.965 67.5659V57.5659C363.237 57.5659 362.807 57.456 362.579 57.3658L358.907 66.6674ZM363.965 67.5659C365.514 67.5659 367.176 67.3538 368.737 66.6776L364.76 57.5021C364.819 57.4765 364.798 57.4949 364.66 57.5185C364.522 57.5421 364.297 57.5659 363.965 57.5659V67.5659ZM368.682 66.7008C370.084 66.113 371.472 65.1813 372.513 63.749L364.426 57.8672C364.686 57.5091 364.927 57.4319 364.815 57.4789L368.682 66.7008ZM372.574 63.6634C373.59 62.2035 374.056 60.5443 374.056 58.8672H364.056C364.056 58.7847 364.067 58.6394 364.123 58.4567C364.179 58.271 364.264 58.098 364.365 57.9528L372.574 63.6634Z" fill="black" mask="url(#path-1-outside-1_180_4910)"/>
</svg>
