<svg width="260" height="150" viewBox="0 0 260 150" fill="none" xmlns="http://www.w3.org/2000/svg">
<path d="M169.133 77.1723C169.141 84.1835 167.817 91.1275 165.237 97.6067C162.657 104.086 158.872 109.973 154.099 114.932C149.325 119.89 143.657 123.823 137.418 126.504C131.179 129.185 124.493 130.562 117.741 130.557C89.3446 130.557 66.3301 106.658 66.3301 77.1723C66.3301 47.6862 89.3446 23.7881 117.741 23.7881C136.755 23.7881 153.366 34.5171 162.263 50.4616C165.142 55.624 167.161 61.2538 168.236 67.1139C168.827 70.4317 169.128 73.7983 169.133 77.1723Z" fill="#AAC6FC"/>
<path d="M117.721 131.489C107.376 131.488 97.263 128.303 88.6612 122.334C80.0594 116.366 73.3551 107.883 69.396 97.958C65.437 88.0332 64.4009 77.1122 66.4189 66.576C68.4369 56.0397 73.4182 46.3614 80.7331 38.7649C88.9267 30.2597 99.6068 24.8188 111.099 23.2951C122.591 21.7714 134.245 24.2512 144.234 30.3456C152.015 35.1126 158.483 41.8804 163.015 49.9968C165.947 55.2441 168.003 60.9688 169.096 66.9285C169.713 70.3059 170.025 73.7356 170.029 77.1732C170.031 81.6764 169.494 86.1625 168.432 90.5286C164.988 104.704 155.965 117.016 143.714 124.318C135.8 129.021 126.839 131.493 117.721 131.489ZM117.721 24.7203C107.731 24.7192 97.9641 27.7948 89.657 33.558C81.3498 39.3213 74.8752 47.5133 71.0521 57.098C67.2291 66.6826 66.2293 77.2293 68.1792 87.404C70.1291 97.5788 74.9412 106.924 82.0067 114.259C89.8491 122.402 100.053 127.639 111.046 129.164C122.038 130.689 133.209 128.416 142.835 122.697C154.674 115.637 163.374 103.754 166.71 90.0629C167.737 85.843 168.255 81.5071 168.253 77.1546C168.251 73.8358 167.951 70.5245 167.356 67.2638C166.303 61.5078 164.32 55.9784 161.49 50.9095C157.059 42.9314 150.678 36.3088 142.993 31.7104C135.308 27.1121 126.591 24.7009 117.721 24.7203Z" fill="#383A48"/>
<path d="M167.609 90.0436C166.582 94.3407 165.046 98.4888 163.035 102.393L153.635 97.6061C151.928 96.7374 150.02 96.3817 148.127 96.5792C146.235 96.7766 144.434 97.5194 142.926 98.7237L123.159 114.538C122.03 115.442 120.72 116.069 119.325 116.372C117.93 116.675 116.487 116.647 115.105 116.289C114.552 116.144 114.012 115.951 113.49 115.711C112.357 115.181 111.335 114.424 110.484 113.483C109.632 112.542 108.968 111.437 108.528 110.229C108.088 109.022 107.882 107.736 107.921 106.446C107.96 105.156 108.243 103.886 108.754 102.71L121.311 73.8383C122.243 71.6881 123.872 69.9455 125.914 68.9142C127.956 67.8828 130.282 67.6281 132.486 68.1944C133.155 68.3671 133.804 68.6105 134.424 68.9209C135.58 69.5087 136.837 69.8521 138.122 69.9311C139.407 70.0102 140.695 69.8233 141.91 69.3814C143.125 68.9395 144.243 68.2514 145.2 67.3569C146.156 66.4625 146.932 65.3796 147.483 64.1711L147.77 63.5378C148.339 62.2901 149.149 61.1769 150.149 60.2669C151.149 59.357 152.318 58.6695 153.583 58.2471C154.849 57.8247 156.185 57.6762 157.508 57.8109C158.832 57.9455 160.114 58.3605 161.277 59.0301L167.107 62.4015C168.701 68.1333 169.356 74.1025 169.044 80.0597C168.879 83.4281 168.398 86.7719 167.609 90.0436Z" fill="#F6E049"/>
<path d="M117.419 117.499C116.573 117.496 115.73 117.39 114.908 117.183C114.303 117.031 113.715 116.818 113.15 116.549C111.908 115.97 110.789 115.142 109.856 114.112C108.924 113.083 108.196 111.873 107.714 110.551C107.233 109.229 107.007 107.821 107.05 106.409C107.093 104.996 107.404 103.606 107.966 102.318L120.522 73.447C121.54 71.0956 123.32 69.19 125.553 68.0631C127.786 66.9362 130.329 66.6596 132.738 67.2816C133.47 67.4678 134.179 67.7363 134.855 68.0825C135.905 68.6144 137.047 68.9245 138.214 68.9949C139.381 69.0653 140.549 68.8946 141.652 68.4926C142.755 68.0907 143.77 67.4655 144.639 66.6533C145.507 65.8412 146.212 64.8581 146.712 63.7611L146.999 63.1278C147.618 61.7612 148.501 60.5415 149.594 59.5448C150.687 58.5481 151.965 57.7957 153.35 57.3344C154.735 56.8731 156.197 56.7128 157.644 56.8635C159.091 57.0142 160.493 57.4727 161.762 58.2103L167.592 61.5818C167.696 61.6394 167.789 61.7187 167.863 61.8148C167.937 61.9109 167.991 62.0218 168.022 62.1406C169.652 67.9672 170.32 74.0386 169.995 80.0968C169.81 83.5268 169.317 86.9316 168.525 90.267C167.478 94.6398 165.917 98.8624 163.879 102.84C163.77 103.053 163.585 103.213 163.363 103.286C163.142 103.359 162.902 103.34 162.695 103.231L153.295 98.4441C151.735 97.6588 149.996 97.3371 148.27 97.5146C146.545 97.6922 144.9 98.362 143.519 99.45L123.733 115.264C121.924 116.713 119.704 117.499 117.419 117.499ZM130.173 68.8089C128.475 68.8107 126.813 69.3214 125.388 70.2795C123.962 71.2377 122.833 72.6027 122.137 74.2107L109.58 103.082C108.641 105.234 108.563 107.684 109.363 109.896C110.164 112.107 111.778 113.897 113.849 114.873C114.317 115.094 114.803 115.268 115.302 115.394C116.556 115.717 117.863 115.742 119.127 115.468C120.391 115.194 121.579 114.627 122.603 113.811L142.371 97.9971C144.015 96.6916 145.976 95.8869 148.035 95.6731C150.094 95.4593 152.17 95.8447 154.031 96.7863L162.641 101.182C164.42 97.5772 165.793 93.7707 166.731 89.8386C168.839 81.0267 168.709 71.7975 166.354 63.0533L160.847 59.8681C159.794 59.2565 158.631 58.8764 157.43 58.7515C156.229 58.6267 155.016 58.7597 153.867 59.1423C152.718 59.5249 151.657 60.1489 150.75 60.9756C149.843 61.8022 149.11 62.8138 148.595 63.9474L148.308 64.5807C147.709 65.9023 146.863 67.087 145.819 68.0657C144.775 69.0444 143.554 69.7975 142.226 70.2812C140.899 70.7648 139.492 70.9694 138.088 70.8829C136.684 70.7965 135.31 70.4207 134.048 69.7775C133.481 69.5022 132.893 69.2778 132.29 69.107C131.602 68.8984 130.889 68.798 130.173 68.8089Z" fill="#383A48"/>
<path d="M86.3493 34.8715C79.1736 40.6085 73.5847 48.212 70.1481 56.9125C66.7115 65.613 65.5492 75.1018 66.7788 84.4186C71.066 76.4836 86.0802 73.7828 91.0849 64.1341C96.0896 54.4854 86.0084 42.5084 94.6008 29.4697C91.695 31.001 88.9327 32.8094 86.3493 34.8715Z" fill="#F6E049"/>
<path d="M66.7776 85.3681C66.7232 85.3712 66.6686 85.3649 66.6162 85.3495C66.433 85.3129 66.2654 85.2179 66.1368 85.0776C66.0082 84.9374 65.9249 84.7589 65.8986 84.5672C64.6444 75.0861 65.8254 65.4292 69.322 56.5745C72.8186 47.7199 78.5066 39.982 85.8099 34.1446C88.4272 32.0452 91.2324 30.2114 94.1869 28.6683C94.3652 28.5785 94.567 28.5517 94.7613 28.592C94.9556 28.6324 95.1319 28.7377 95.2632 28.8919C95.3956 29.0458 95.4745 29.2413 95.4875 29.4471C95.5005 29.653 95.4468 29.8575 95.335 30.0281C90.7249 37.0317 91.7294 43.6629 92.6981 50.0891C93.4873 55.2487 94.2228 60.1103 91.8729 64.6179C89.1105 69.9452 83.6214 73.1304 78.3118 76.2224C73.7555 78.8674 69.4683 81.382 67.5669 84.9025C67.481 85.0402 67.3645 85.1545 67.2271 85.2356C67.0897 85.3166 66.9355 85.3621 66.7776 85.3681ZM92.1779 31.9094C90.3433 33.0325 88.5761 34.2703 86.8861 35.6161C80.1445 41.0048 74.8237 48.0753 71.4179 56.1709C68.0122 64.2664 66.6319 73.1245 67.4054 81.9222C69.8091 79.035 73.5402 76.8743 77.4328 74.6019C82.5272 71.6402 87.7831 68.5668 90.2944 63.7239C92.3393 59.775 91.6577 55.1928 90.9222 50.3685C90.0612 44.7246 89.1105 38.466 92.1779 31.9094Z" fill="#383A48"/>
<path d="M159.59 107.944C160.086 107.944 160.487 107.527 160.487 107.013C160.487 106.499 160.086 106.082 159.59 106.082C159.095 106.082 158.693 106.499 158.693 107.013C158.693 107.527 159.095 107.944 159.59 107.944Z" fill="#383A48"/>
<path d="M155.159 107.944C155.654 107.944 156.055 107.527 156.055 107.013C156.055 106.499 155.654 106.082 155.159 106.082C154.663 106.082 154.262 106.499 154.262 107.013C154.262 107.527 154.663 107.944 155.159 107.944Z" fill="#383A48"/>
<path d="M155.159 112.526C155.654 112.526 156.055 112.109 156.055 111.595C156.055 111.081 155.654 110.664 155.159 110.664C154.663 110.664 154.262 111.081 154.262 111.595C154.262 112.109 154.663 112.526 155.159 112.526Z" fill="#383A48"/>
<path d="M150.727 112.526C151.222 112.526 151.624 112.109 151.624 111.595C151.624 111.081 151.222 110.664 150.727 110.664C150.232 110.664 149.83 111.081 149.83 111.595C149.83 112.109 150.232 112.526 150.727 112.526Z" fill="#383A48"/>
<path d="M150.727 117.127C151.222 117.127 151.624 116.71 151.624 116.195C151.624 115.681 151.222 115.264 150.727 115.264C150.232 115.264 149.83 115.681 149.83 116.195C149.83 116.71 150.232 117.127 150.727 117.127Z" fill="#383A48"/>
<path d="M146.317 112.526C146.812 112.526 147.214 112.109 147.214 111.595C147.214 111.081 146.812 110.664 146.317 110.664C145.821 110.664 145.42 111.081 145.42 111.595C145.42 112.109 145.821 112.526 146.317 112.526Z" fill="#383A48"/>
<path d="M146.317 117.127C146.812 117.127 147.214 116.71 147.214 116.195C147.214 115.681 146.812 115.264 146.317 115.264C145.821 115.264 145.42 115.681 145.42 116.195C145.42 116.71 145.821 117.127 146.317 117.127Z" fill="#383A48"/>
<path d="M146.317 121.728C146.812 121.728 147.214 121.311 147.214 120.797C147.214 120.282 146.812 119.865 146.317 119.865C145.821 119.865 145.42 120.282 145.42 120.797C145.42 121.311 145.821 121.728 146.317 121.728Z" fill="#383A48"/>
<path d="M141.885 112.526C142.381 112.526 142.782 112.109 142.782 111.595C142.782 111.081 142.381 110.664 141.885 110.664C141.39 110.664 140.988 111.081 140.988 111.595C140.988 112.109 141.39 112.526 141.885 112.526Z" fill="#383A48"/>
<path d="M141.885 117.127C142.381 117.127 142.782 116.71 142.782 116.195C142.782 115.681 142.381 115.264 141.885 115.264C141.39 115.264 140.988 115.681 140.988 116.195C140.988 116.71 141.39 117.127 141.885 117.127Z" fill="#383A48"/>
<path d="M141.885 121.728C142.381 121.728 142.782 121.311 142.782 120.797C142.782 120.282 142.381 119.865 141.885 119.865C141.39 119.865 140.988 120.282 140.988 120.797C140.988 121.311 141.39 121.728 141.885 121.728Z" fill="#383A48"/>
<path d="M137.454 112.526C137.949 112.526 138.35 112.109 138.35 111.595C138.35 111.081 137.949 110.664 137.454 110.664C136.958 110.664 136.557 111.081 136.557 111.595C136.557 112.109 136.958 112.526 137.454 112.526Z" fill="#383A48"/>
<path d="M137.454 117.127C137.949 117.127 138.35 116.71 138.35 116.195C138.35 115.681 137.949 115.264 137.454 115.264C136.958 115.264 136.557 115.681 136.557 116.195C136.557 116.71 136.958 117.127 137.454 117.127Z" fill="#383A48"/>
<path d="M137.454 121.728C137.949 121.728 138.35 121.311 138.35 120.797C138.35 120.282 137.949 119.865 137.454 119.865C136.958 119.865 136.557 120.282 136.557 120.797C136.557 121.311 136.958 121.728 137.454 121.728Z" fill="#383A48"/>
<path d="M137.454 126.309C137.949 126.309 138.35 125.892 138.35 125.378C138.35 124.864 137.949 124.447 137.454 124.447C136.958 124.447 136.557 124.864 136.557 125.378C136.557 125.892 136.958 126.309 137.454 126.309Z" fill="#383A48"/>
<path d="M133.041 112.526C133.537 112.526 133.938 112.109 133.938 111.595C133.938 111.081 133.537 110.664 133.041 110.664C132.546 110.664 132.145 111.081 132.145 111.595C132.145 112.109 132.546 112.526 133.041 112.526Z" fill="#383A48"/>
<path d="M133.041 117.127C133.537 117.127 133.938 116.71 133.938 116.195C133.938 115.681 133.537 115.264 133.041 115.264C132.546 115.264 132.145 115.681 132.145 116.195C132.145 116.71 132.546 117.127 133.041 117.127Z" fill="#383A48"/>
<path d="M133.041 121.728C133.537 121.728 133.938 121.311 133.938 120.797C133.938 120.282 133.537 119.865 133.041 119.865C132.546 119.865 132.145 120.282 132.145 120.797C132.145 121.311 132.546 121.728 133.041 121.728Z" fill="#383A48"/>
<path d="M133.041 126.309C133.537 126.309 133.938 125.892 133.938 125.378C133.938 124.864 133.537 124.447 133.041 124.447C132.546 124.447 132.145 124.864 132.145 125.378C132.145 125.892 132.546 126.309 133.041 126.309Z" fill="#383A48"/>
<path d="M128.61 112.526C129.105 112.526 129.507 112.109 129.507 111.595C129.507 111.081 129.105 110.664 128.61 110.664C128.114 110.664 127.713 111.081 127.713 111.595C127.713 112.109 128.114 112.526 128.61 112.526Z" fill="#383A48"/>
<path d="M128.61 117.127C129.105 117.127 129.507 116.71 129.507 116.195C129.507 115.681 129.105 115.264 128.61 115.264C128.114 115.264 127.713 115.681 127.713 116.195C127.713 116.71 128.114 117.127 128.61 117.127Z" fill="#383A48"/>
<path d="M128.61 121.728C129.105 121.728 129.507 121.311 129.507 120.797C129.507 120.282 129.105 119.865 128.61 119.865C128.114 119.865 127.713 120.282 127.713 120.797C127.713 121.311 128.114 121.728 128.61 121.728Z" fill="#383A48"/>
<path d="M128.61 126.309C129.105 126.309 129.507 125.892 129.507 125.378C129.507 124.864 129.105 124.447 128.61 124.447C128.114 124.447 127.713 124.864 127.713 125.378C127.713 125.892 128.114 126.309 128.61 126.309Z" fill="#383A48"/>
<path d="M124.178 112.526C124.673 112.526 125.075 112.109 125.075 111.595C125.075 111.081 124.673 110.664 124.178 110.664C123.683 110.664 123.281 111.081 123.281 111.595C123.281 112.109 123.683 112.526 124.178 112.526Z" fill="#383A48"/>
<path d="M124.178 117.127C124.673 117.127 125.075 116.71 125.075 116.195C125.075 115.681 124.673 115.264 124.178 115.264C123.683 115.264 123.281 115.681 123.281 116.195C123.281 116.71 123.683 117.127 124.178 117.127Z" fill="#383A48"/>
<path d="M124.178 121.728C124.673 121.728 125.075 121.311 125.075 120.797C125.075 120.282 124.673 119.865 124.178 119.865C123.683 119.865 123.281 120.282 123.281 120.797C123.281 121.311 123.683 121.728 124.178 121.728Z" fill="#383A48"/>
<path d="M124.178 126.309C124.673 126.309 125.075 125.892 125.075 125.378C125.075 124.864 124.673 124.447 124.178 124.447C123.683 124.447 123.281 124.864 123.281 125.378C123.281 125.892 123.683 126.309 124.178 126.309Z" fill="#383A48"/>
<path d="M119.766 107.944C120.261 107.944 120.663 107.527 120.663 107.013C120.663 106.499 120.261 106.082 119.766 106.082C119.271 106.082 118.869 106.499 118.869 107.013C118.869 107.527 119.271 107.944 119.766 107.944Z" fill="#383A48"/>
<path d="M119.766 112.526C120.261 112.526 120.663 112.109 120.663 111.595C120.663 111.081 120.261 110.664 119.766 110.664C119.271 110.664 118.869 111.081 118.869 111.595C118.869 112.109 119.271 112.526 119.766 112.526Z" fill="#383A48"/>
<path d="M119.766 117.127C120.261 117.127 120.663 116.71 120.663 116.195C120.663 115.681 120.261 115.264 119.766 115.264C119.271 115.264 118.869 115.681 118.869 116.195C118.869 116.71 119.271 117.127 119.766 117.127Z" fill="#383A48"/>
<path d="M119.766 121.728C120.261 121.728 120.663 121.311 120.663 120.797C120.663 120.282 120.261 119.865 119.766 119.865C119.271 119.865 118.869 120.282 118.869 120.797C118.869 121.311 119.271 121.728 119.766 121.728Z" fill="#383A48"/>
<path d="M119.766 126.309C120.261 126.309 120.663 125.892 120.663 125.378C120.663 124.864 120.261 124.447 119.766 124.447C119.271 124.447 118.869 124.864 118.869 125.378C118.869 125.892 119.271 126.309 119.766 126.309Z" fill="#383A48"/>
<path d="M119.766 130.911C120.261 130.911 120.663 130.494 120.663 129.98C120.663 129.465 120.261 129.048 119.766 129.048C119.271 129.048 118.869 129.465 118.869 129.98C118.869 130.494 119.271 130.911 119.766 130.911Z" fill="#383A48"/>
<path d="M115.334 107.944C115.83 107.944 116.231 107.527 116.231 107.013C116.231 106.499 115.83 106.082 115.334 106.082C114.839 106.082 114.438 106.499 114.438 107.013C114.438 107.527 114.839 107.944 115.334 107.944Z" fill="#383A48"/>
<path d="M115.334 112.526C115.83 112.526 116.231 112.109 116.231 111.595C116.231 111.081 115.83 110.664 115.334 110.664C114.839 110.664 114.438 111.081 114.438 111.595C114.438 112.109 114.839 112.526 115.334 112.526Z" fill="#383A48"/>
<path d="M115.334 117.127C115.83 117.127 116.231 116.71 116.231 116.195C116.231 115.681 115.83 115.264 115.334 115.264C114.839 115.264 114.438 115.681 114.438 116.195C114.438 116.71 114.839 117.127 115.334 117.127Z" fill="#383A48"/>
<path d="M115.334 121.728C115.83 121.728 116.231 121.311 116.231 120.797C116.231 120.282 115.83 119.865 115.334 119.865C114.839 119.865 114.438 120.282 114.438 120.797C114.438 121.311 114.839 121.728 115.334 121.728Z" fill="#383A48"/>
<path d="M115.334 126.309C115.83 126.309 116.231 125.892 116.231 125.378C116.231 124.864 115.83 124.447 115.334 124.447C114.839 124.447 114.438 124.864 114.438 125.378C114.438 125.892 114.839 126.309 115.334 126.309Z" fill="#383A48"/>
<path d="M115.334 130.911C115.83 130.911 116.231 130.494 116.231 129.98C116.231 129.465 115.83 129.048 115.334 129.048C114.839 129.048 114.438 129.465 114.438 129.98C114.438 130.494 114.839 130.911 115.334 130.911Z" fill="#383A48"/>
<path d="M110.905 107.944C111.4 107.944 111.802 107.527 111.802 107.013C111.802 106.499 111.4 106.082 110.905 106.082C110.409 106.082 110.008 106.499 110.008 107.013C110.008 107.527 110.409 107.944 110.905 107.944Z" fill="#383A48"/>
<path d="M110.905 112.526C111.4 112.526 111.802 112.109 111.802 111.595C111.802 111.081 111.4 110.664 110.905 110.664C110.409 110.664 110.008 111.081 110.008 111.595C110.008 112.109 110.409 112.526 110.905 112.526Z" fill="#383A48"/>
<path d="M110.905 117.127C111.4 117.127 111.802 116.71 111.802 116.195C111.802 115.681 111.4 115.264 110.905 115.264C110.409 115.264 110.008 115.681 110.008 116.195C110.008 116.71 110.409 117.127 110.905 117.127Z" fill="#383A48"/>
<path d="M110.905 121.728C111.4 121.728 111.802 121.311 111.802 120.797C111.802 120.282 111.4 119.865 110.905 119.865C110.409 119.865 110.008 120.282 110.008 120.797C110.008 121.311 110.409 121.728 110.905 121.728Z" fill="#383A48"/>
<path d="M110.905 126.309C111.4 126.309 111.802 125.892 111.802 125.378C111.802 124.864 111.4 124.447 110.905 124.447C110.409 124.447 110.008 124.864 110.008 125.378C110.008 125.892 110.409 126.309 110.905 126.309Z" fill="#383A48"/>
<path d="M110.905 130.911C111.4 130.911 111.802 130.494 111.802 129.98C111.802 129.465 111.4 129.048 110.905 129.048C110.409 129.048 110.008 129.465 110.008 129.98C110.008 130.494 110.409 130.911 110.905 130.911Z" fill="#383A48"/>
<path d="M106.491 103.344C106.986 103.344 107.388 102.927 107.388 102.412C107.388 101.898 106.986 101.481 106.491 101.481C105.995 101.481 105.594 101.898 105.594 102.412C105.594 102.927 105.995 103.344 106.491 103.344Z" fill="#383A48"/>
<path d="M106.491 107.944C106.986 107.944 107.388 107.527 107.388 107.013C107.388 106.499 106.986 106.082 106.491 106.082C105.995 106.082 105.594 106.499 105.594 107.013C105.594 107.527 105.995 107.944 106.491 107.944Z" fill="#383A48"/>
<path d="M106.491 112.526C106.986 112.526 107.388 112.109 107.388 111.595C107.388 111.081 106.986 110.664 106.491 110.664C105.995 110.664 105.594 111.081 105.594 111.595C105.594 112.109 105.995 112.526 106.491 112.526Z" fill="#383A48"/>
<path d="M106.491 117.127C106.986 117.127 107.388 116.71 107.388 116.195C107.388 115.681 106.986 115.264 106.491 115.264C105.995 115.264 105.594 115.681 105.594 116.195C105.594 116.71 105.995 117.127 106.491 117.127Z" fill="#383A48"/>
<path d="M106.491 121.728C106.986 121.728 107.388 121.311 107.388 120.797C107.388 120.282 106.986 119.865 106.491 119.865C105.995 119.865 105.594 120.282 105.594 120.797C105.594 121.311 105.995 121.728 106.491 121.728Z" fill="#383A48"/>
<path d="M106.491 126.309C106.986 126.309 107.388 125.892 107.388 125.378C107.388 124.864 106.986 124.447 106.491 124.447C105.995 124.447 105.594 124.864 105.594 125.378C105.594 125.892 105.995 126.309 106.491 126.309Z" fill="#383A48"/>
<path d="M102.063 98.7426C102.558 98.7426 102.96 98.3256 102.96 97.8112C102.96 97.2969 102.558 96.8799 102.063 96.8799C101.568 96.8799 101.166 97.2969 101.166 97.8112C101.166 98.3256 101.568 98.7426 102.063 98.7426Z" fill="#383A48"/>
<path d="M102.063 103.344C102.558 103.344 102.96 102.927 102.96 102.412C102.96 101.898 102.558 101.481 102.063 101.481C101.568 101.481 101.166 101.898 101.166 102.412C101.166 102.927 101.568 103.344 102.063 103.344Z" fill="#383A48"/>
<path d="M102.063 107.944C102.558 107.944 102.96 107.527 102.96 107.013C102.96 106.499 102.558 106.082 102.063 106.082C101.568 106.082 101.166 106.499 101.166 107.013C101.166 107.527 101.568 107.944 102.063 107.944Z" fill="#383A48"/>
<path d="M102.063 112.526C102.558 112.526 102.96 112.109 102.96 111.595C102.96 111.081 102.558 110.664 102.063 110.664C101.568 110.664 101.166 111.081 101.166 111.595C101.166 112.109 101.568 112.526 102.063 112.526Z" fill="#383A48"/>
<path d="M102.063 117.127C102.558 117.127 102.96 116.71 102.96 116.195C102.96 115.681 102.558 115.264 102.063 115.264C101.568 115.264 101.166 115.681 101.166 116.195C101.166 116.71 101.568 117.127 102.063 117.127Z" fill="#383A48"/>
<path d="M102.063 121.728C102.558 121.728 102.96 121.311 102.96 120.797C102.96 120.282 102.558 119.865 102.063 119.865C101.568 119.865 101.166 120.282 101.166 120.797C101.166 121.311 101.568 121.728 102.063 121.728Z" fill="#383A48"/>
<path d="M102.063 126.309C102.558 126.309 102.96 125.892 102.96 125.378C102.96 124.864 102.558 124.447 102.063 124.447C101.568 124.447 101.166 124.864 101.166 125.378C101.166 125.892 101.568 126.309 102.063 126.309Z" fill="#383A48"/>
<path d="M97.6313 94.1605C98.1266 94.1605 98.5282 93.7435 98.5282 93.2292C98.5282 92.7148 98.1266 92.2979 97.6313 92.2979C97.1359 92.2979 96.7344 92.7148 96.7344 93.2292C96.7344 93.7435 97.1359 94.1605 97.6313 94.1605Z" fill="#383A48"/>
<path d="M97.6313 98.7426C98.1266 98.7426 98.5282 98.3256 98.5282 97.8112C98.5282 97.2969 98.1266 96.8799 97.6313 96.8799C97.1359 96.8799 96.7344 97.2969 96.7344 97.8112C96.7344 98.3256 97.1359 98.7426 97.6313 98.7426Z" fill="#383A48"/>
<path d="M97.6313 103.344C98.1266 103.344 98.5282 102.927 98.5282 102.412C98.5282 101.898 98.1266 101.481 97.6313 101.481C97.1359 101.481 96.7344 101.898 96.7344 102.412C96.7344 102.927 97.1359 103.344 97.6313 103.344Z" fill="#383A48"/>
<path d="M97.6313 107.944C98.1266 107.944 98.5282 107.527 98.5282 107.013C98.5282 106.499 98.1266 106.082 97.6313 106.082C97.1359 106.082 96.7344 106.499 96.7344 107.013C96.7344 107.527 97.1359 107.944 97.6313 107.944Z" fill="#383A48"/>
<path d="M97.6313 112.526C98.1266 112.526 98.5282 112.109 98.5282 111.595C98.5282 111.081 98.1266 110.664 97.6313 110.664C97.1359 110.664 96.7344 111.081 96.7344 111.595C96.7344 112.109 97.1359 112.526 97.6313 112.526Z" fill="#383A48"/>
<path d="M97.6313 117.127C98.1266 117.127 98.5282 116.71 98.5282 116.195C98.5282 115.681 98.1266 115.264 97.6313 115.264C97.1359 115.264 96.7344 115.681 96.7344 116.195C96.7344 116.71 97.1359 117.127 97.6313 117.127Z" fill="#383A48"/>
<path d="M97.6313 121.728C98.1266 121.728 98.5282 121.311 98.5282 120.797C98.5282 120.282 98.1266 119.865 97.6313 119.865C97.1359 119.865 96.7344 120.282 96.7344 120.797C96.7344 121.311 97.1359 121.728 97.6313 121.728Z" fill="#383A48"/>
<path d="M97.6313 126.309C98.1266 126.309 98.5282 125.892 98.5282 125.378C98.5282 124.864 98.1266 124.447 97.6313 124.447C97.1359 124.447 96.7344 124.864 96.7344 125.378C96.7344 125.892 97.1359 126.309 97.6313 126.309Z" fill="#383A48"/>
<path d="M93.2172 89.5595C93.7126 89.5595 94.1141 89.1425 94.1141 88.6281C94.1141 88.1138 93.7126 87.6968 93.2172 87.6968C92.7219 87.6968 92.3203 88.1138 92.3203 88.6281C92.3203 89.1425 92.7219 89.5595 93.2172 89.5595Z" fill="#383A48"/>
<path d="M93.2172 94.1605C93.7126 94.1605 94.1141 93.7435 94.1141 93.2292C94.1141 92.7148 93.7126 92.2979 93.2172 92.2979C92.7219 92.2979 92.3203 92.7148 92.3203 93.2292C92.3203 93.7435 92.7219 94.1605 93.2172 94.1605Z" fill="#383A48"/>
<path d="M93.2172 98.7426C93.7126 98.7426 94.1141 98.3256 94.1141 97.8112C94.1141 97.2969 93.7126 96.8799 93.2172 96.8799C92.7219 96.8799 92.3203 97.2969 92.3203 97.8112C92.3203 98.3256 92.7219 98.7426 93.2172 98.7426Z" fill="#383A48"/>
<path d="M93.2172 103.344C93.7126 103.344 94.1141 102.927 94.1141 102.412C94.1141 101.898 93.7126 101.481 93.2172 101.481C92.7219 101.481 92.3203 101.898 92.3203 102.412C92.3203 102.927 92.7219 103.344 93.2172 103.344Z" fill="#383A48"/>
<path d="M93.2172 107.944C93.7126 107.944 94.1141 107.527 94.1141 107.013C94.1141 106.499 93.7126 106.082 93.2172 106.082C92.7219 106.082 92.3203 106.499 92.3203 107.013C92.3203 107.527 92.7219 107.944 93.2172 107.944Z" fill="#383A48"/>
<path d="M93.2172 112.526C93.7126 112.526 94.1141 112.109 94.1141 111.595C94.1141 111.081 93.7126 110.664 93.2172 110.664C92.7219 110.664 92.3203 111.081 92.3203 111.595C92.3203 112.109 92.7219 112.526 93.2172 112.526Z" fill="#383A48"/>
<path d="M93.2172 117.127C93.7126 117.127 94.1141 116.71 94.1141 116.195C94.1141 115.681 93.7126 115.264 93.2172 115.264C92.7219 115.264 92.3203 115.681 92.3203 116.195C92.3203 116.71 92.7219 117.127 93.2172 117.127Z" fill="#383A48"/>
<path d="M93.2172 121.728C93.7126 121.728 94.1141 121.311 94.1141 120.797C94.1141 120.282 93.7126 119.865 93.2172 119.865C92.7219 119.865 92.3203 120.282 92.3203 120.797C92.3203 121.311 92.7219 121.728 93.2172 121.728Z" fill="#383A48"/>
<path d="M88.7875 34.4242C89.2829 34.4242 89.6844 34.0072 89.6844 33.4929C89.6844 32.9785 89.2829 32.5615 88.7875 32.5615C88.2922 32.5615 87.8906 32.9785 87.8906 33.4929C87.8906 34.0072 88.2922 34.4242 88.7875 34.4242Z" fill="#383A48"/>
<path d="M88.7875 80.3764C89.2829 80.3764 89.6844 79.9594 89.6844 79.445C89.6844 78.9307 89.2829 78.5137 88.7875 78.5137C88.2922 78.5137 87.8906 78.9307 87.8906 79.445C87.8906 79.9594 88.2922 80.3764 88.7875 80.3764Z" fill="#383A48"/>
<path d="M88.7875 84.9584C89.2829 84.9584 89.6844 84.5414 89.6844 84.027C89.6844 83.5127 89.2829 83.0957 88.7875 83.0957C88.2922 83.0957 87.8906 83.5127 87.8906 84.027C87.8906 84.5414 88.2922 84.9584 88.7875 84.9584Z" fill="#383A48"/>
<path d="M88.7875 89.5595C89.2829 89.5595 89.6844 89.1425 89.6844 88.6281C89.6844 88.1138 89.2829 87.6968 88.7875 87.6968C88.2922 87.6968 87.8906 88.1138 87.8906 88.6281C87.8906 89.1425 88.2922 89.5595 88.7875 89.5595Z" fill="#383A48"/>
<path d="M88.7875 94.1605C89.2829 94.1605 89.6844 93.7435 89.6844 93.2292C89.6844 92.7148 89.2829 92.2979 88.7875 92.2979C88.2922 92.2979 87.8906 92.7148 87.8906 93.2292C87.8906 93.7435 88.2922 94.1605 88.7875 94.1605Z" fill="#383A48"/>
<path d="M88.7875 98.7426C89.2829 98.7426 89.6844 98.3256 89.6844 97.8112C89.6844 97.2969 89.2829 96.8799 88.7875 96.8799C88.2922 96.8799 87.8906 97.2969 87.8906 97.8112C87.8906 98.3256 88.2922 98.7426 88.7875 98.7426Z" fill="#383A48"/>
<path d="M88.7875 103.344C89.2829 103.344 89.6844 102.927 89.6844 102.412C89.6844 101.898 89.2829 101.481 88.7875 101.481C88.2922 101.481 87.8906 101.898 87.8906 102.412C87.8906 102.927 88.2922 103.344 88.7875 103.344Z" fill="#383A48"/>
<path d="M88.7875 107.944C89.2829 107.944 89.6844 107.527 89.6844 107.013C89.6844 106.499 89.2829 106.082 88.7875 106.082C88.2922 106.082 87.8906 106.499 87.8906 107.013C87.8906 107.527 88.2922 107.944 88.7875 107.944Z" fill="#383A48"/>
<path d="M88.7875 112.526C89.2829 112.526 89.6844 112.109 89.6844 111.595C89.6844 111.081 89.2829 110.664 88.7875 110.664C88.2922 110.664 87.8906 111.081 87.8906 111.595C87.8906 112.109 88.2922 112.526 88.7875 112.526Z" fill="#383A48"/>
<path d="M88.7875 117.127C89.2829 117.127 89.6844 116.71 89.6844 116.195C89.6844 115.681 89.2829 115.264 88.7875 115.264C88.2922 115.264 87.8906 115.681 87.8906 116.195C87.8906 116.71 88.2922 117.127 88.7875 117.127Z" fill="#383A48"/>
<path d="M88.7875 121.728C89.2829 121.728 89.6844 121.311 89.6844 120.797C89.6844 120.282 89.2829 119.865 88.7875 119.865C88.2922 119.865 87.8906 120.282 87.8906 120.797C87.8906 121.311 88.2922 121.728 88.7875 121.728Z" fill="#383A48"/>
<path d="M84.3578 39.0248C84.8532 39.0248 85.2547 38.6078 85.2547 38.0934C85.2547 37.5791 84.8532 37.1621 84.3578 37.1621C83.8625 37.1621 83.4609 37.5791 83.4609 38.0934C83.4609 38.6078 83.8625 39.0248 84.3578 39.0248Z" fill="#383A48"/>
<path d="M84.3578 43.6068C84.8532 43.6068 85.2547 43.1898 85.2547 42.6755C85.2547 42.1611 84.8532 41.7441 84.3578 41.7441C83.8625 41.7441 83.4609 42.1611 83.4609 42.6755C83.4609 43.1898 83.8625 43.6068 84.3578 43.6068Z" fill="#383A48"/>
<path d="M84.3578 48.2079C84.8532 48.2079 85.2547 47.7909 85.2547 47.2766C85.2547 46.7622 84.8532 46.3452 84.3578 46.3452C83.8625 46.3452 83.4609 46.7622 83.4609 47.2766C83.4609 47.7909 83.8625 48.2079 84.3578 48.2079Z" fill="#383A48"/>
<path d="M84.3578 52.809C84.8532 52.809 85.2547 52.392 85.2547 51.8776C85.2547 51.3633 84.8532 50.9463 84.3578 50.9463C83.8625 50.9463 83.4609 51.3633 83.4609 51.8776C83.4609 52.392 83.8625 52.809 84.3578 52.809Z" fill="#383A48"/>
<path d="M84.3578 57.391C84.8532 57.391 85.2547 56.974 85.2547 56.4597C85.2547 55.9453 84.8532 55.5283 84.3578 55.5283C83.8625 55.5283 83.4609 55.9453 83.4609 56.4597C83.4609 56.974 83.8625 57.391 84.3578 57.391Z" fill="#383A48"/>
<path d="M84.3578 61.9921C84.8532 61.9921 85.2547 61.5751 85.2547 61.0607C85.2547 60.5464 84.8532 60.1294 84.3578 60.1294C83.8625 60.1294 83.4609 60.5464 83.4609 61.0607C83.4609 61.5751 83.8625 61.9921 84.3578 61.9921Z" fill="#383A48"/>
<path d="M84.3578 66.5927C84.8532 66.5927 85.2547 66.1757 85.2547 65.6613C85.2547 65.147 84.8532 64.73 84.3578 64.73C83.8625 64.73 83.4609 65.147 83.4609 65.6613C83.4609 66.1757 83.8625 66.5927 84.3578 66.5927Z" fill="#383A48"/>
<path d="M84.3578 71.1752C84.8532 71.1752 85.2547 70.7582 85.2547 70.2438C85.2547 69.7295 84.8532 69.3125 84.3578 69.3125C83.8625 69.3125 83.4609 69.7295 83.4609 70.2438C83.4609 70.7582 83.8625 71.1752 84.3578 71.1752Z" fill="#383A48"/>
<path d="M84.3578 75.7757C84.8532 75.7757 85.2547 75.3588 85.2547 74.8444C85.2547 74.3301 84.8532 73.9131 84.3578 73.9131C83.8625 73.9131 83.4609 74.3301 83.4609 74.8444C83.4609 75.3588 83.8625 75.7757 84.3578 75.7757Z" fill="#383A48"/>
<path d="M84.3578 80.3764C84.8532 80.3764 85.2547 79.9594 85.2547 79.445C85.2547 78.9307 84.8532 78.5137 84.3578 78.5137C83.8625 78.5137 83.4609 78.9307 83.4609 79.445C83.4609 79.9594 83.8625 80.3764 84.3578 80.3764Z" fill="#383A48"/>
<path d="M84.3578 84.9584C84.8532 84.9584 85.2547 84.5414 85.2547 84.027C85.2547 83.5127 84.8532 83.0957 84.3578 83.0957C83.8625 83.0957 83.4609 83.5127 83.4609 84.027C83.4609 84.5414 83.8625 84.9584 84.3578 84.9584Z" fill="#383A48"/>
<path d="M84.3578 89.5595C84.8532 89.5595 85.2547 89.1425 85.2547 88.6281C85.2547 88.1138 84.8532 87.6968 84.3578 87.6968C83.8625 87.6968 83.4609 88.1138 83.4609 88.6281C83.4609 89.1425 83.8625 89.5595 84.3578 89.5595Z" fill="#383A48"/>
<path d="M84.3578 94.1605C84.8532 94.1605 85.2547 93.7435 85.2547 93.2292C85.2547 92.7148 84.8532 92.2979 84.3578 92.2979C83.8625 92.2979 83.4609 92.7148 83.4609 93.2292C83.4609 93.7435 83.8625 94.1605 84.3578 94.1605Z" fill="#383A48"/>
<path d="M84.3578 98.7426C84.8532 98.7426 85.2547 98.3256 85.2547 97.8112C85.2547 97.2969 84.8532 96.8799 84.3578 96.8799C83.8625 96.8799 83.4609 97.2969 83.4609 97.8112C83.4609 98.3256 83.8625 98.7426 84.3578 98.7426Z" fill="#383A48"/>
<path d="M84.3578 103.344C84.8532 103.344 85.2547 102.927 85.2547 102.412C85.2547 101.898 84.8532 101.481 84.3578 101.481C83.8625 101.481 83.4609 101.898 83.4609 102.412C83.4609 102.927 83.8625 103.344 84.3578 103.344Z" fill="#383A48"/>
<path d="M84.3578 107.944C84.8532 107.944 85.2547 107.527 85.2547 107.013C85.2547 106.499 84.8532 106.082 84.3578 106.082C83.8625 106.082 83.4609 106.499 83.4609 107.013C83.4609 107.527 83.8625 107.944 84.3578 107.944Z" fill="#383A48"/>
<path d="M84.3578 112.526C84.8532 112.526 85.2547 112.109 85.2547 111.595C85.2547 111.081 84.8532 110.664 84.3578 110.664C83.8625 110.664 83.4609 111.081 83.4609 111.595C83.4609 112.109 83.8625 112.526 84.3578 112.526Z" fill="#383A48"/>
<path d="M84.3578 117.127C84.8532 117.127 85.2547 116.71 85.2547 116.195C85.2547 115.681 84.8532 115.264 84.3578 115.264C83.8625 115.264 83.4609 115.681 83.4609 116.195C83.4609 116.71 83.8625 117.127 84.3578 117.127Z" fill="#383A48"/>
<path d="M79.9438 43.6068C80.4391 43.6068 80.8407 43.1898 80.8407 42.6755C80.8407 42.1611 80.4391 41.7441 79.9438 41.7441C79.4484 41.7441 79.0469 42.1611 79.0469 42.6755C79.0469 43.1898 79.4484 43.6068 79.9438 43.6068Z" fill="#383A48"/>
<path d="M79.9438 48.2079C80.4391 48.2079 80.8407 47.7909 80.8407 47.2766C80.8407 46.7622 80.4391 46.3452 79.9438 46.3452C79.4484 46.3452 79.0469 46.7622 79.0469 47.2766C79.0469 47.7909 79.4484 48.2079 79.9438 48.2079Z" fill="#383A48"/>
<path d="M79.9438 52.809C80.4391 52.809 80.8407 52.392 80.8407 51.8776C80.8407 51.3633 80.4391 50.9463 79.9438 50.9463C79.4484 50.9463 79.0469 51.3633 79.0469 51.8776C79.0469 52.392 79.4484 52.809 79.9438 52.809Z" fill="#383A48"/>
<path d="M79.9438 57.391C80.4391 57.391 80.8407 56.974 80.8407 56.4597C80.8407 55.9453 80.4391 55.5283 79.9438 55.5283C79.4484 55.5283 79.0469 55.9453 79.0469 56.4597C79.0469 56.974 79.4484 57.391 79.9438 57.391Z" fill="#383A48"/>
<path d="M79.9438 61.9921C80.4391 61.9921 80.8407 61.5751 80.8407 61.0607C80.8407 60.5464 80.4391 60.1294 79.9438 60.1294C79.4484 60.1294 79.0469 60.5464 79.0469 61.0607C79.0469 61.5751 79.4484 61.9921 79.9438 61.9921Z" fill="#383A48"/>
<path d="M79.9438 66.5927C80.4391 66.5927 80.8407 66.1757 80.8407 65.6613C80.8407 65.147 80.4391 64.73 79.9438 64.73C79.4484 64.73 79.0469 65.147 79.0469 65.6613C79.0469 66.1757 79.4484 66.5927 79.9438 66.5927Z" fill="#383A48"/>
<path d="M79.9438 71.1752C80.4391 71.1752 80.8407 70.7582 80.8407 70.2438C80.8407 69.7295 80.4391 69.3125 79.9438 69.3125C79.4484 69.3125 79.0469 69.7295 79.0469 70.2438C79.0469 70.7582 79.4484 71.1752 79.9438 71.1752Z" fill="#383A48"/>
<path d="M79.9438 75.7757C80.4391 75.7757 80.8407 75.3588 80.8407 74.8444C80.8407 74.3301 80.4391 73.9131 79.9438 73.9131C79.4484 73.9131 79.0469 74.3301 79.0469 74.8444C79.0469 75.3588 79.4484 75.7757 79.9438 75.7757Z" fill="#383A48"/>
<path d="M79.9438 80.3764C80.4391 80.3764 80.8407 79.9594 80.8407 79.445C80.8407 78.9307 80.4391 78.5137 79.9438 78.5137C79.4484 78.5137 79.0469 78.9307 79.0469 79.445C79.0469 79.9594 79.4484 80.3764 79.9438 80.3764Z" fill="#383A48"/>
<path d="M79.9438 84.9584C80.4391 84.9584 80.8407 84.5414 80.8407 84.027C80.8407 83.5127 80.4391 83.0957 79.9438 83.0957C79.4484 83.0957 79.0469 83.5127 79.0469 84.027C79.0469 84.5414 79.4484 84.9584 79.9438 84.9584Z" fill="#383A48"/>
<path d="M79.9438 89.5595C80.4391 89.5595 80.8407 89.1425 80.8407 88.6281C80.8407 88.1138 80.4391 87.6968 79.9438 87.6968C79.4484 87.6968 79.0469 88.1138 79.0469 88.6281C79.0469 89.1425 79.4484 89.5595 79.9438 89.5595Z" fill="#383A48"/>
<path d="M79.9438 94.1605C80.4391 94.1605 80.8407 93.7435 80.8407 93.2292C80.8407 92.7148 80.4391 92.2979 79.9438 92.2979C79.4484 92.2979 79.0469 92.7148 79.0469 93.2292C79.0469 93.7435 79.4484 94.1605 79.9438 94.1605Z" fill="#383A48"/>
<path d="M79.9438 98.7426C80.4391 98.7426 80.8407 98.3256 80.8407 97.8112C80.8407 97.2969 80.4391 96.8799 79.9438 96.8799C79.4484 96.8799 79.0469 97.2969 79.0469 97.8112C79.0469 98.3256 79.4484 98.7426 79.9438 98.7426Z" fill="#383A48"/>
<path d="M79.9438 103.344C80.4391 103.344 80.8407 102.927 80.8407 102.412C80.8407 101.898 80.4391 101.481 79.9438 101.481C79.4484 101.481 79.0469 101.898 79.0469 102.412C79.0469 102.927 79.4484 103.344 79.9438 103.344Z" fill="#383A48"/>
<path d="M79.9438 107.944C80.4391 107.944 80.8407 107.527 80.8407 107.013C80.8407 106.499 80.4391 106.082 79.9438 106.082C79.4484 106.082 79.0469 106.499 79.0469 107.013C79.0469 107.527 79.4484 107.944 79.9438 107.944Z" fill="#383A48"/>
<path d="M79.9438 112.526C80.4391 112.526 80.8407 112.109 80.8407 111.595C80.8407 111.081 80.4391 110.664 79.9438 110.664C79.4484 110.664 79.0469 111.081 79.0469 111.595C79.0469 112.109 79.4484 112.526 79.9438 112.526Z" fill="#383A48"/>
<path d="M75.5122 48.2079C76.0075 48.2079 76.4091 47.7909 76.4091 47.2766C76.4091 46.7622 76.0075 46.3452 75.5122 46.3452C75.0168 46.3452 74.6152 46.7622 74.6152 47.2766C74.6152 47.7909 75.0168 48.2079 75.5122 48.2079Z" fill="#383A48"/>
<path d="M75.5122 52.809C76.0075 52.809 76.4091 52.392 76.4091 51.8776C76.4091 51.3633 76.0075 50.9463 75.5122 50.9463C75.0168 50.9463 74.6152 51.3633 74.6152 51.8776C74.6152 52.392 75.0168 52.809 75.5122 52.809Z" fill="#383A48"/>
<path d="M75.5122 57.391C76.0075 57.391 76.4091 56.974 76.4091 56.4597C76.4091 55.9453 76.0075 55.5283 75.5122 55.5283C75.0168 55.5283 74.6152 55.9453 74.6152 56.4597C74.6152 56.974 75.0168 57.391 75.5122 57.391Z" fill="#383A48"/>
<path d="M75.5122 61.9921C76.0075 61.9921 76.4091 61.5751 76.4091 61.0607C76.4091 60.5464 76.0075 60.1294 75.5122 60.1294C75.0168 60.1294 74.6152 60.5464 74.6152 61.0607C74.6152 61.5751 75.0168 61.9921 75.5122 61.9921Z" fill="#383A48"/>
<path d="M75.5122 66.5927C76.0075 66.5927 76.4091 66.1757 76.4091 65.6613C76.4091 65.147 76.0075 64.73 75.5122 64.73C75.0168 64.73 74.6152 65.147 74.6152 65.6613C74.6152 66.1757 75.0168 66.5927 75.5122 66.5927Z" fill="#383A48"/>
<path d="M75.5122 71.1752C76.0075 71.1752 76.4091 70.7582 76.4091 70.2438C76.4091 69.7295 76.0075 69.3125 75.5122 69.3125C75.0168 69.3125 74.6152 69.7295 74.6152 70.2438C74.6152 70.7582 75.0168 71.1752 75.5122 71.1752Z" fill="#383A48"/>
<path d="M75.5122 75.7757C76.0075 75.7757 76.4091 75.3588 76.4091 74.8444C76.4091 74.3301 76.0075 73.9131 75.5122 73.9131C75.0168 73.9131 74.6152 74.3301 74.6152 74.8444C74.6152 75.3588 75.0168 75.7757 75.5122 75.7757Z" fill="#383A48"/>
<path d="M75.5122 80.3764C76.0075 80.3764 76.4091 79.9594 76.4091 79.445C76.4091 78.9307 76.0075 78.5137 75.5122 78.5137C75.0168 78.5137 74.6152 78.9307 74.6152 79.445C74.6152 79.9594 75.0168 80.3764 75.5122 80.3764Z" fill="#383A48"/>
<path d="M75.5122 84.9584C76.0075 84.9584 76.4091 84.5414 76.4091 84.027C76.4091 83.5127 76.0075 83.0957 75.5122 83.0957C75.0168 83.0957 74.6152 83.5127 74.6152 84.027C74.6152 84.5414 75.0168 84.9584 75.5122 84.9584Z" fill="#383A48"/>
<path d="M75.5122 89.5595C76.0075 89.5595 76.4091 89.1425 76.4091 88.6281C76.4091 88.1138 76.0075 87.6968 75.5122 87.6968C75.0168 87.6968 74.6152 88.1138 74.6152 88.6281C74.6152 89.1425 75.0168 89.5595 75.5122 89.5595Z" fill="#383A48"/>
<path d="M75.5122 94.1605C76.0075 94.1605 76.4091 93.7435 76.4091 93.2292C76.4091 92.7148 76.0075 92.2979 75.5122 92.2979C75.0168 92.2979 74.6152 92.7148 74.6152 93.2292C74.6152 93.7435 75.0168 94.1605 75.5122 94.1605Z" fill="#383A48"/>
<path d="M75.5122 98.7426C76.0075 98.7426 76.4091 98.3256 76.4091 97.8112C76.4091 97.2969 76.0075 96.8799 75.5122 96.8799C75.0168 96.8799 74.6152 97.2969 74.6152 97.8112C74.6152 98.3256 75.0168 98.7426 75.5122 98.7426Z" fill="#383A48"/>
<path d="M75.5122 103.344C76.0075 103.344 76.4091 102.927 76.4091 102.412C76.4091 101.898 76.0075 101.481 75.5122 101.481C75.0168 101.481 74.6152 101.898 74.6152 102.412C74.6152 102.927 75.0168 103.344 75.5122 103.344Z" fill="#383A48"/>
<path d="M75.5122 107.944C76.0075 107.944 76.4091 107.527 76.4091 107.013C76.4091 106.499 76.0075 106.082 75.5122 106.082C75.0168 106.082 74.6152 106.499 74.6152 107.013C74.6152 107.527 75.0168 107.944 75.5122 107.944Z" fill="#383A48"/>
<path d="M71.0805 57.391C71.5758 57.391 71.9774 56.974 71.9774 56.4597C71.9774 55.9453 71.5758 55.5283 71.0805 55.5283C70.5851 55.5283 70.1836 55.9453 70.1836 56.4597C70.1836 56.974 70.5851 57.391 71.0805 57.391Z" fill="#383A48"/>
<path d="M71.0805 61.9921C71.5758 61.9921 71.9774 61.5751 71.9774 61.0607C71.9774 60.5464 71.5758 60.1294 71.0805 60.1294C70.5851 60.1294 70.1836 60.5464 70.1836 61.0607C70.1836 61.5751 70.5851 61.9921 71.0805 61.9921Z" fill="#383A48"/>
<path d="M71.0805 66.5927C71.5758 66.5927 71.9774 66.1757 71.9774 65.6613C71.9774 65.147 71.5758 64.73 71.0805 64.73C70.5851 64.73 70.1836 65.147 70.1836 65.6613C70.1836 66.1757 70.5851 66.5927 71.0805 66.5927Z" fill="#383A48"/>
<path d="M71.0805 71.1752C71.5758 71.1752 71.9774 70.7582 71.9774 70.2438C71.9774 69.7295 71.5758 69.3125 71.0805 69.3125C70.5851 69.3125 70.1836 69.7295 70.1836 70.2438C70.1836 70.7582 70.5851 71.1752 71.0805 71.1752Z" fill="#383A48"/>
<path d="M71.0805 75.7757C71.5758 75.7757 71.9774 75.3588 71.9774 74.8444C71.9774 74.3301 71.5758 73.9131 71.0805 73.9131C70.5851 73.9131 70.1836 74.3301 70.1836 74.8444C70.1836 75.3588 70.5851 75.7757 71.0805 75.7757Z" fill="#383A48"/>
<path d="M71.0805 80.3764C71.5758 80.3764 71.9774 79.9594 71.9774 79.445C71.9774 78.9307 71.5758 78.5137 71.0805 78.5137C70.5851 78.5137 70.1836 78.9307 70.1836 79.445C70.1836 79.9594 70.5851 80.3764 71.0805 80.3764Z" fill="#383A48"/>
<path d="M71.0805 84.9584C71.5758 84.9584 71.9774 84.5414 71.9774 84.027C71.9774 83.5127 71.5758 83.0957 71.0805 83.0957C70.5851 83.0957 70.1836 83.5127 70.1836 84.027C70.1836 84.5414 70.5851 84.9584 71.0805 84.9584Z" fill="#383A48"/>
<path d="M71.0805 89.5595C71.5758 89.5595 71.9774 89.1425 71.9774 88.6281C71.9774 88.1138 71.5758 87.6968 71.0805 87.6968C70.5851 87.6968 70.1836 88.1138 70.1836 88.6281C70.1836 89.1425 70.5851 89.5595 71.0805 89.5595Z" fill="#383A48"/>
<path d="M71.0805 94.1605C71.5758 94.1605 71.9774 93.7435 71.9774 93.2292C71.9774 92.7148 71.5758 92.2979 71.0805 92.2979C70.5851 92.2979 70.1836 92.7148 70.1836 93.2292C70.1836 93.7435 70.5851 94.1605 71.0805 94.1605Z" fill="#383A48"/>
<path d="M71.0805 98.7426C71.5758 98.7426 71.9774 98.3256 71.9774 97.8112C71.9774 97.2969 71.5758 96.8799 71.0805 96.8799C70.5851 96.8799 70.1836 97.2969 70.1836 97.8112C70.1836 98.3256 70.5851 98.7426 71.0805 98.7426Z" fill="#383A48"/>
<path d="M66.6703 71.1752C67.1657 71.1752 67.5672 70.7582 67.5672 70.2438C67.5672 69.7295 67.1657 69.3125 66.6703 69.3125C66.175 69.3125 65.7734 69.7295 65.7734 70.2438C65.7734 70.7582 66.175 71.1752 66.6703 71.1752Z" fill="#383A48"/>
<path d="M66.6703 75.7757C67.1657 75.7757 67.5672 75.3588 67.5672 74.8444C67.5672 74.3301 67.1657 73.9131 66.6703 73.9131C66.175 73.9131 65.7734 74.3301 65.7734 74.8444C65.7734 75.3588 66.175 75.7757 66.6703 75.7757Z" fill="#383A48"/>
<path d="M66.6703 80.3764C67.1657 80.3764 67.5672 79.9594 67.5672 79.445C67.5672 78.9307 67.1657 78.5137 66.6703 78.5137C66.175 78.5137 65.7734 78.9307 65.7734 79.445C65.7734 79.9594 66.175 80.3764 66.6703 80.3764Z" fill="#383A48"/>
<path d="M66.6703 84.9584C67.1657 84.9584 67.5672 84.5414 67.5672 84.027C67.5672 83.5127 67.1657 83.0957 66.6703 83.0957C66.175 83.0957 65.7734 83.5127 65.7734 84.027C65.7734 84.5414 66.175 84.9584 66.6703 84.9584Z" fill="#383A48"/>
<path d="M68.0504 139.962C64.6242 139.962 61.9335 139.013 60.05 137.057C55.1709 131.99 56.7315 120.963 64.4807 106.025C72.0506 91.4026 84.6431 74.6012 99.9442 58.7126C115.245 42.824 131.426 29.748 145.507 21.8876C159.893 13.8594 170.513 12.2203 175.392 17.2867C181.257 23.3777 177.813 37.8879 165.956 57.148L164.449 56.1421C175.643 37.9624 179.266 23.9365 174.136 18.6092C169.921 14.232 159.804 16.0201 146.368 23.5267C132.43 31.3127 116.393 44.2769 101.218 60.0351C86.0423 75.7933 73.5574 92.4457 66.0593 106.919C58.8302 120.87 57.1082 131.376 61.3236 135.753C66.4539 141.08 79.9613 137.317 97.4688 125.694L98.4375 127.259C85.827 135.622 75.3153 139.962 68.0504 139.962Z" fill="#383A48"/>
<path d="M50.8304 131.247C50.6005 131.248 50.379 131.157 50.2114 130.994C50.0438 130.831 49.9427 130.607 49.929 130.369C49.9152 130.13 49.9898 129.896 50.1374 129.713C50.285 129.53 50.4944 129.412 50.7227 129.384C51.3865 129.31 52.0681 129.198 52.7856 129.068C53.0183 129.024 53.2582 129.078 53.4526 129.218C53.647 129.358 53.7801 129.572 53.8229 129.813C53.8656 130.055 53.8144 130.304 53.6805 130.507C53.5466 130.709 53.3409 130.848 53.1085 130.893C52.3551 131.042 51.6197 131.154 50.9021 131.229C50.8842 131.247 50.8663 131.247 50.8304 131.247ZM45.4848 131.024C45.4185 131.028 45.352 131.021 45.2875 131.005C44.5203 130.823 43.7744 130.554 43.0632 130.204C42.8496 130.095 42.6863 129.903 42.6092 129.669C42.5321 129.435 42.5475 129.179 42.6521 128.957C42.7566 128.735 42.9417 128.565 43.1668 128.484C43.3918 128.404 43.6385 128.419 43.8525 128.528C44.4415 128.82 45.0617 129.039 45.7001 129.18C45.8154 129.206 45.9245 129.256 46.0209 129.326C46.1172 129.397 46.1988 129.488 46.2608 129.592C46.3227 129.696 46.3638 129.812 46.3815 129.934C46.3992 130.055 46.3932 130.178 46.3638 130.297C46.3164 130.503 46.2041 130.686 46.0448 130.818C45.8855 130.949 45.6884 131.022 45.4848 131.024ZM39.7447 126.404C39.5743 126.405 39.4074 126.354 39.2642 126.258C39.121 126.162 39.0075 126.025 38.9375 125.864C38.6202 125.121 38.3739 124.347 38.202 123.554C38.1755 123.434 38.1721 123.31 38.192 123.188C38.2119 123.067 38.2547 122.951 38.318 122.847C38.3812 122.742 38.4637 122.652 38.5606 122.581C38.6575 122.51 38.767 122.46 38.8828 122.433C38.9985 122.406 39.1183 122.403 39.2351 122.424C39.352 122.445 39.4637 122.49 39.5638 122.556C39.6638 122.622 39.7504 122.708 39.8183 122.809C39.8863 122.91 39.9344 123.024 39.9599 123.145C40.0981 123.804 40.3025 124.447 40.5698 125.063C40.6209 125.173 40.6503 125.292 40.6563 125.414C40.6622 125.536 40.6446 125.658 40.6045 125.772C40.5643 125.887 40.5025 125.992 40.4226 126.081C40.3427 126.171 40.2464 126.242 40.1393 126.292C40.019 126.364 39.8832 126.402 39.7447 126.404ZM38.9016 118.73H38.7939C38.5593 118.701 38.3451 118.577 38.1975 118.385C38.0499 118.194 37.9807 117.95 38.0047 117.706C38.0764 116.979 38.202 116.215 38.3455 115.433C38.3663 115.313 38.4098 115.198 38.4734 115.095C38.5371 114.993 38.6196 114.904 38.7163 114.834C38.8131 114.765 38.922 114.716 39.037 114.69C39.152 114.664 39.2708 114.663 39.3865 114.685C39.5022 114.707 39.6125 114.752 39.7112 114.819C39.8099 114.885 39.895 114.971 39.9616 115.072C40.0282 115.173 40.0751 115.286 40.0994 115.405C40.1237 115.525 40.1251 115.648 40.1034 115.768C39.9599 116.495 39.8702 117.221 39.7985 117.91C39.7696 118.137 39.6629 118.344 39.498 118.495C39.3331 118.645 39.1212 118.729 38.9016 118.73ZM40.6236 111.112C40.5255 111.111 40.4283 111.092 40.3366 111.056C40.1133 110.975 39.9287 110.808 39.8216 110.589C39.7146 110.37 39.6934 110.117 39.7626 109.882C39.9779 109.193 40.229 108.467 40.4981 107.74C40.5813 107.51 40.749 107.325 40.9643 107.223C41.1796 107.122 41.4249 107.114 41.6461 107.2C41.8673 107.286 42.0464 107.461 42.144 107.684C42.2415 107.908 42.2496 108.162 42.1663 108.392C41.9152 109.1 41.664 109.789 41.4488 110.46C41.4012 110.649 41.2941 110.815 41.1445 110.934C40.995 111.052 40.8116 111.114 40.6236 111.112ZM43.4399 103.866C43.3096 103.862 43.1814 103.83 43.0632 103.773C42.9566 103.722 42.8607 103.65 42.7812 103.561C42.7017 103.471 42.6401 103.366 42.6 103.252C42.5599 103.137 42.5422 103.016 42.5478 102.894C42.5534 102.772 42.5823 102.653 42.6327 102.543C42.9376 101.873 43.2426 101.184 43.5834 100.513C43.6883 100.291 43.8737 100.122 44.0989 100.042C44.3241 99.9615 44.5707 99.9776 44.7845 100.086C44.9984 100.195 45.162 100.387 45.2395 100.621C45.317 100.854 45.302 101.11 45.1978 101.333C44.8749 102.003 44.57 102.674 44.2651 103.326C44.1924 103.489 44.0758 103.627 43.9294 103.722C43.783 103.818 43.613 103.868 43.4399 103.866ZM46.884 96.9181C46.7338 96.9186 46.5858 96.8802 46.4535 96.8063C46.3506 96.7469 46.26 96.6668 46.1871 96.5708C46.1141 96.4747 46.0602 96.3646 46.0285 96.2469C45.9968 96.1291 45.988 96.0059 46.0024 95.8845C46.0168 95.7631 46.0543 95.6459 46.1127 95.5397C46.4535 94.9064 46.8123 94.2544 47.189 93.5839C47.3085 93.3728 47.5037 93.2195 47.7319 93.1575C47.96 93.0954 48.2025 93.1297 48.4064 93.2528C48.6103 93.3759 48.7589 93.5777 48.8199 93.8143C48.8808 94.0509 48.8491 94.3029 48.7316 94.5152C48.3729 95.1671 48.0141 95.8191 47.6733 96.4338C47.5975 96.5822 47.4837 96.706 47.3444 96.7915C47.2051 96.8769 47.0458 96.9208 46.884 96.9181ZM50.7766 90.2124C50.6051 90.209 50.4378 90.1575 50.2922 90.0634C50.093 89.9295 49.9529 89.7192 49.9024 89.4784C49.852 89.2376 49.8954 88.9859 50.0232 88.7782C50.2025 88.4802 50.3999 88.1635 50.5972 87.8655C50.7258 87.6584 50.9283 87.5127 51.1603 87.4605C51.3922 87.4084 51.6346 87.4539 51.8342 87.5872C52.0339 87.7204 52.1744 87.9305 52.225 88.1713C52.2755 88.4121 52.232 88.6638 52.104 88.8713C51.9246 89.1693 51.7273 89.4674 51.5479 89.7654C51.4647 89.9 51.3507 90.0113 51.2162 90.0893C51.0816 90.1672 50.9306 90.2095 50.7766 90.2124Z" fill="#383A48"/>
<path d="M177.889 60.6702C177.718 60.6668 177.55 60.6153 177.405 60.5212C177.205 60.3873 177.065 60.177 177.015 59.9362C176.964 59.6954 177.008 59.4436 177.136 59.2359C177.315 58.9379 177.512 58.6399 177.692 58.3419C177.755 58.2389 177.838 58.15 177.934 58.0802C178.031 58.0104 178.14 57.9611 178.255 57.935C178.37 57.909 178.489 57.9067 178.605 57.9284C178.72 57.9501 178.831 57.9953 178.93 58.0614C179.029 58.1275 179.115 58.2132 179.182 58.3136C179.249 58.4141 179.296 58.5273 179.321 58.6468C179.346 58.7662 179.348 58.8896 179.327 59.0099C179.306 59.1302 179.262 59.245 179.198 59.3477C179.019 59.6457 178.822 59.9624 178.642 60.2604C178.557 60.3857 178.444 60.4881 178.313 60.5593C178.182 60.6305 178.037 60.6685 177.889 60.6702ZM181.261 55.0077C181.103 55.0107 180.947 54.9654 180.813 54.8773C180.711 54.8164 180.622 54.7353 180.551 54.6386C180.48 54.5419 180.428 54.4315 180.398 54.3138C180.368 54.196 180.36 54.0733 180.376 53.9526C180.392 53.832 180.431 53.7157 180.49 53.6107C180.849 52.9587 181.208 52.3254 181.548 51.6921C181.665 51.4772 181.859 51.3192 182.088 51.2528C182.316 51.1865 182.561 51.2172 182.768 51.3382C182.975 51.4592 183.127 51.6607 183.191 51.8982C183.255 52.1358 183.226 52.3899 183.109 52.6048C182.768 53.2381 182.391 53.9087 182.033 54.5606C181.951 54.697 181.838 54.8096 181.703 54.8878C181.568 54.966 181.416 55.0073 181.261 55.0077ZM184.849 48.1344C184.713 48.1302 184.579 48.0986 184.454 48.0413C184.348 47.9876 184.253 47.9128 184.175 47.8209C184.097 47.7291 184.037 47.6222 183.998 47.5062C183.96 47.3903 183.944 47.2676 183.952 47.1453C183.959 47.0229 183.99 46.9033 184.042 46.7933C184.365 46.1227 184.67 45.4522 184.975 44.8002C185.075 44.5796 185.256 44.4094 185.478 44.3267C185.699 44.2441 185.943 44.2556 186.156 44.3589C186.369 44.4622 186.534 44.6488 186.615 44.878C186.696 45.1073 186.687 45.3605 186.589 45.5825C186.284 46.2531 185.979 46.9423 185.638 47.6129C185.566 47.7672 185.454 47.8977 185.315 47.9898C185.175 48.0819 185.014 48.132 184.849 48.1344ZM187.881 40.9631C187.771 40.9627 187.662 40.9439 187.558 40.9072C187.448 40.8648 187.347 40.8002 187.262 40.7172C187.176 40.6341 187.107 40.5344 187.059 40.4236C187.01 40.3128 186.984 40.1931 186.98 40.0715C186.976 39.95 186.996 39.8288 187.037 39.7151C187.289 39.0073 187.54 38.3181 187.755 37.6475C187.835 37.4214 187.997 37.2364 188.205 37.1313C188.414 37.0262 188.654 37.0092 188.875 37.084C189.095 37.1588 189.28 37.3194 189.389 37.5322C189.497 37.7449 189.523 37.9933 189.459 38.225C189.244 38.9142 188.993 39.6406 188.724 40.3671C188.657 40.5426 188.541 40.6933 188.39 40.7996C188.24 40.9058 188.062 40.9628 187.881 40.9631ZM189.997 33.4752C189.943 33.4782 189.888 33.4719 189.836 33.4565C189.603 33.4117 189.396 33.2729 189.262 33.0704C189.127 32.8678 189.076 32.6182 189.118 32.3762C189.262 31.6497 189.351 30.9233 189.423 30.2341C189.449 29.9896 189.568 29.7658 189.753 29.6121C189.938 29.4584 190.174 29.3874 190.41 29.4145C190.645 29.4417 190.861 29.5649 191.009 29.757C191.157 29.9491 191.225 30.1945 191.199 30.439C191.127 31.1654 191.002 31.9291 190.858 32.7115C190.824 32.9235 190.719 33.1162 190.561 33.2558C190.404 33.3955 190.204 33.4731 189.997 33.4752ZM190.141 25.7078C189.937 25.7079 189.739 25.6362 189.579 25.5042C189.419 25.3722 189.307 25.1879 189.262 24.9814C189.124 24.3215 188.919 23.6784 188.652 23.0628C188.554 22.8408 188.544 22.5875 188.626 22.3583C188.707 22.1291 188.872 21.9424 189.085 21.8392C189.298 21.7359 189.542 21.7243 189.763 21.807C189.985 21.8897 190.165 22.0599 190.266 22.2805C190.583 23.0236 190.83 23.7972 191.002 24.5902C191.054 24.8322 191.011 25.0857 190.883 25.2952C190.755 25.5046 190.553 25.653 190.32 25.7078C190.261 25.6984 190.2 25.6984 190.141 25.7078ZM185.764 19.6727C185.628 19.6686 185.494 19.6369 185.369 19.5796C184.78 19.2875 184.16 19.0687 183.522 18.9277C183.407 18.8995 183.3 18.8483 183.204 18.7769C183.109 18.7055 183.028 18.6154 182.967 18.5116C182.905 18.4078 182.864 18.2924 182.845 18.1721C182.826 18.0517 182.831 17.9287 182.858 17.8101C182.885 17.6914 182.934 17.5795 183.003 17.4806C183.072 17.3818 183.159 17.298 183.259 17.234C183.358 17.17 183.47 17.1271 183.585 17.1077C183.701 17.0883 183.82 17.0927 183.934 17.1209C184.701 17.3032 185.447 17.5718 186.158 17.9218C186.265 17.9755 186.36 18.0503 186.438 18.1422C186.516 18.234 186.576 18.3409 186.614 18.4569C186.653 18.5728 186.669 18.6955 186.661 18.8178C186.654 18.9402 186.623 19.0598 186.571 19.1698C186.496 19.3243 186.38 19.4535 186.237 19.5425C186.095 19.6315 185.93 19.6767 185.764 19.6727ZM176.257 19.0581C176.034 19.0575 175.819 18.9705 175.654 18.8141C175.49 18.6577 175.387 18.4431 175.367 18.2124C175.347 17.9817 175.41 17.7515 175.545 17.5668C175.68 17.3821 175.876 17.2563 176.095 17.214C176.849 17.065 177.584 16.9532 178.302 16.8787C178.418 16.8653 178.536 16.8758 178.649 16.9097C178.762 16.9436 178.867 17.0002 178.958 17.0763C179.05 17.1524 179.126 17.2465 179.183 17.3533C179.239 17.46 179.275 17.5772 179.288 17.6983C179.301 17.8194 179.291 17.9419 179.258 18.0589C179.226 18.176 179.171 18.2851 179.098 18.3803C179.025 18.4754 178.934 18.5546 178.831 18.6134C178.728 18.6721 178.615 18.7093 178.499 18.7228C177.835 18.7973 177.154 18.909 176.436 19.0394C176.377 19.054 176.317 19.0602 176.257 19.0581Z" fill="#383A48"/>
<path d="M147.299 31.597C149.269 25.9705 146.474 19.7506 141.056 17.7046C135.637 15.6586 129.647 18.5612 127.677 24.1878C125.707 29.8143 128.502 36.0341 133.92 38.0801C139.339 40.1261 145.329 37.2235 147.299 31.597Z" fill="#F3F6E6"/>
<path d="M137.489 39.6399C135.247 39.6399 133.055 38.9495 131.191 37.656C129.326 36.3624 127.873 34.5239 127.015 32.3728C126.157 30.2217 125.933 27.8548 126.37 25.5712C126.808 23.2876 127.887 21.19 129.473 19.5437C131.058 17.8973 133.078 16.7761 135.277 16.3219C137.477 15.8677 139.756 16.1008 141.828 16.9918C143.899 17.8828 145.67 19.3917 146.915 21.3276C148.161 23.2635 148.826 25.5395 148.826 27.8678C148.823 30.9889 147.627 33.9812 145.502 36.1881C143.377 38.3951 140.495 39.6365 137.489 39.6399ZM137.489 17.977C135.602 17.977 133.757 18.5582 132.187 19.6471C130.618 20.7359 129.395 22.2836 128.673 24.0943C127.95 25.905 127.761 27.8974 128.13 29.8197C128.498 31.7419 129.407 33.5076 130.741 34.8935C132.076 36.2793 133.776 37.2231 135.627 37.6055C137.479 37.9878 139.397 37.7916 141.141 37.0416C142.885 36.2915 144.375 35.0214 145.424 33.3918C146.473 31.7622 147.032 29.8463 147.032 27.8864C147.03 25.2589 146.024 22.7395 144.235 20.8816C142.446 19.0236 140.02 17.979 137.489 17.977Z" fill="#383A48"/>
<path d="M223.43 60.2903C238.439 60.2903 250.607 47.0347 250.607 30.6832C250.607 14.3317 238.439 1.07617 223.43 1.07617C208.42 1.07617 196.252 14.3317 196.252 30.6832C196.252 47.0347 208.42 60.2903 223.43 60.2903Z" fill="#7FD6C2"/>
<path d="M223.428 61.4105C207.883 61.4105 195.242 47.6392 195.242 30.7052C195.242 13.7712 207.883 0 223.428 0C238.972 0 251.614 13.7712 251.614 30.7052C251.634 47.6173 238.972 61.4105 223.428 61.4105ZM223.428 2.1744C208.992 2.1744 197.258 14.9573 197.258 30.6833C197.258 46.4093 208.992 59.1921 223.428 59.1921C237.863 59.1921 249.597 46.4093 249.597 30.6833C249.597 14.9573 237.863 2.1744 223.428 2.1744Z" fill="#383A48"/>
<path d="M223.429 30.2222C227.348 30.2222 230.526 26.7608 230.526 22.491C230.526 18.2212 227.348 14.7598 223.429 14.7598C219.509 14.7598 216.332 18.2212 216.332 22.491C216.332 26.7608 219.509 30.2222 223.429 30.2222Z" fill="#F3F6E6"/>
<path d="M223.429 31.3209C218.973 31.3209 215.324 27.3675 215.324 22.4915C215.324 17.6375 218.953 13.6621 223.429 13.6621C227.885 13.6621 231.534 17.6156 231.534 22.4915C231.534 27.3675 227.905 31.3209 223.429 31.3209ZM223.429 15.8804C220.082 15.8804 217.34 18.8455 217.34 22.5135C217.34 26.1814 220.062 29.1465 223.429 29.1465C226.776 29.1465 229.518 26.1814 229.518 22.5135C229.518 18.8455 226.796 15.8804 223.429 15.8804Z" fill="#383A48"/>
<path d="M234.596 45.2898H212.277V42.3906C212.277 35.6697 217.277 30.2446 223.427 30.2446C229.596 30.2446 234.576 35.6916 234.576 42.3906L234.596 45.2898Z" fill="#F3F6E6"/>
<path d="M234.598 46.388H212.28C211.715 46.388 211.271 45.9048 211.271 45.2898V42.3906C211.271 35.0767 216.735 29.1465 223.429 29.1465C230.122 29.1465 235.586 35.0986 235.586 42.3906V45.2898C235.606 45.8828 235.143 46.388 234.598 46.388ZM213.288 44.1916H233.59V42.3906C233.59 36.2847 229.034 31.3429 223.449 31.3429C217.844 31.3429 213.308 36.3067 213.308 42.3906L213.288 44.1916Z" fill="#383A48"/>
<path d="M241.354 148.035C250.985 148.035 258.793 139.529 258.793 129.037C258.793 118.544 250.985 110.038 241.354 110.038C231.722 110.038 223.914 118.544 223.914 129.037C223.914 139.529 231.722 148.035 241.354 148.035Z" fill="#F6E049"/>
<path d="M241.352 149.133C231.17 149.133 222.904 140.106 222.904 129.037C222.904 117.967 231.191 108.94 241.352 108.94C251.513 108.94 259.8 117.967 259.8 129.037C259.8 140.106 251.533 149.133 241.352 149.133ZM241.352 111.114C232.279 111.114 224.92 119.153 224.92 129.015C224.92 138.876 232.3 146.915 241.352 146.915C250.425 146.915 257.784 138.876 257.784 129.015C257.784 119.153 250.425 111.114 241.352 111.114Z" fill="#383A48"/>
<path d="M241.351 128.729C243.868 128.729 245.908 126.507 245.908 123.766C245.908 121.024 243.868 118.802 241.351 118.802C238.835 118.802 236.795 121.024 236.795 123.766C236.795 126.507 238.835 128.729 241.351 128.729Z" fill="#F3F6E6"/>
<path d="M241.352 129.828C238.287 129.828 235.787 127.104 235.787 123.766C235.787 120.427 238.287 117.704 241.352 117.704C244.416 117.704 246.916 120.427 246.916 123.766C246.916 127.104 244.416 129.828 241.352 129.828ZM241.352 119.922C239.396 119.922 237.803 121.657 237.803 123.788C237.803 125.918 239.396 127.653 241.352 127.653C243.307 127.653 244.9 125.918 244.9 123.788C244.9 121.635 243.307 119.922 241.352 119.922Z" fill="#383A48"/>
<path d="M248.529 138.394H234.215V136.527C234.215 132.222 237.421 128.729 241.372 128.729C245.324 128.729 248.529 132.222 248.529 136.527V138.394Z" fill="#F3F6E6"/>
<path d="M248.53 139.492H234.215C233.651 139.492 233.207 139.009 233.207 138.394V136.527C233.207 131.629 236.876 127.631 241.372 127.631C245.868 127.631 249.538 131.629 249.538 136.527V138.394C249.538 139.009 249.074 139.492 248.53 139.492ZM235.203 137.295H247.502V136.527C247.502 132.837 244.739 129.828 241.352 129.828C237.965 129.828 235.203 132.837 235.203 136.527V137.295Z" fill="#383A48"/>
<path d="M223.428 85.7245H187.057V83.5281H222.42V60.3125H224.436V84.6482C224.436 85.2413 223.992 85.7245 223.428 85.7245Z" fill="#383A48"/>
<path d="M242.359 110.016H240.343V85.7242H223.428V83.5278H241.351C241.916 83.5278 242.359 84.011 242.359 84.626V110.016Z" fill="#383A48"/>
<path d="M242.315 87.1079C243.574 87.1079 244.594 85.9967 244.594 84.626C244.594 83.2552 243.574 82.144 242.315 82.144C241.057 82.144 240.037 83.2552 240.037 84.626C240.037 85.9967 241.057 87.1079 242.315 87.1079Z" fill="#383A48"/>
<path d="M242.314 88.2061C240.499 88.2061 239.027 86.6027 239.027 84.626C239.027 82.6493 240.499 81.0459 242.314 81.0459C244.128 81.0459 245.6 82.6493 245.6 84.626C245.6 86.6027 244.128 88.2061 242.314 88.2061ZM242.314 83.2423C241.608 83.2423 241.043 83.8573 241.043 84.626C241.043 85.3947 241.608 86.0097 242.314 86.0097C243.019 86.0097 243.584 85.3947 243.584 84.626C243.584 83.8573 243.019 83.2423 242.314 83.2423Z" fill="#383A48"/>
<path d="M19.4777 112.975C29.7786 112.975 38.1292 103.878 38.1292 92.6567C38.1292 81.4349 29.7786 72.3379 19.4777 72.3379C9.17673 72.3379 0.826172 81.4349 0.826172 92.6567C0.826172 103.878 9.17673 112.975 19.4777 112.975Z" fill="#AAC6FC"/>
<path d="M19.4768 113.857C8.74804 113.857 0 104.345 0 92.6388C0 80.933 8.73153 71.4209 19.4768 71.4209C30.222 71.4209 38.9535 80.933 38.9535 92.6388C38.9535 104.345 30.2055 113.857 19.4768 113.857ZM19.4768 73.237C9.65586 73.237 1.65057 81.9399 1.65057 92.6567C1.65057 103.356 9.63935 112.076 19.4768 112.076C29.2977 112.076 37.303 103.374 37.303 92.6567C37.2865 81.9399 29.2977 73.237 19.4768 73.237Z" fill="#383A48"/>
<path d="M19.4777 92.3151C22.1577 92.3151 24.3304 89.9483 24.3304 87.0287C24.3304 84.109 22.1577 81.7422 19.4777 81.7422C16.7976 81.7422 14.625 84.109 14.625 87.0287C14.625 89.9483 16.7976 92.3151 19.4777 92.3151Z" fill="#F3F6E6"/>
<path d="M19.4768 93.2143C16.3407 93.2143 13.7988 90.4272 13.7988 87.0288C13.7988 83.6303 16.3572 80.8433 19.4768 80.8433C22.5964 80.8433 25.1548 83.6303 25.1548 87.0288C25.1548 90.4272 22.6129 93.2143 19.4768 93.2143ZM19.4768 82.6234C17.2485 82.6234 15.4494 84.6013 15.4494 87.0108C15.4494 89.4203 17.265 91.3982 19.4768 91.3982C21.6886 91.3982 23.5042 89.4203 23.5042 87.0108C23.5042 84.6013 21.6886 82.6234 19.4768 82.6234Z" fill="#383A48"/>
<path d="M27.1231 102.655H11.8223V100.659C11.8223 96.0555 15.2555 92.3154 19.4809 92.3154C23.7064 92.3154 27.1396 96.0555 27.1396 100.659L27.1231 102.655Z" fill="#F3F6E6"/>
<path d="M27.1202 103.553H11.8194C11.3573 103.553 10.9941 103.158 10.9941 102.654V100.658C10.9941 95.5697 14.7905 91.416 19.4781 91.416C24.1492 91.416 27.962 95.5517 27.962 100.658V102.654C27.9455 103.158 27.5824 103.553 27.1202 103.553ZM12.6447 101.755H26.295V100.658C26.295 96.5586 23.2249 93.2141 19.4616 93.2141C15.6983 93.2141 12.6282 96.5586 12.6282 100.658L12.6447 101.755Z" fill="#383A48"/>
<path d="M19.4765 61.9627C20.5066 61.9627 21.3416 61.053 21.3416 59.9308C21.3416 58.8086 20.5066 57.8989 19.4765 57.8989C18.4464 57.8989 17.6113 58.8086 17.6113 59.9308C17.6113 61.053 18.4464 61.9627 19.4765 61.9627Z" fill="#383A48"/>
<path d="M19.4756 62.8619C17.9901 62.8619 16.7852 61.5492 16.7852 59.9309C16.7852 58.3126 17.9901 57 19.4756 57C20.9611 57 22.166 58.3126 22.166 59.9309C22.1495 61.5313 20.9446 62.8619 19.4756 62.8619ZM19.4756 58.7981C18.8979 58.7981 18.4357 59.3016 18.4357 59.9309C18.4357 60.5603 18.8979 61.0638 19.4756 61.0638C20.0533 61.0638 20.5155 60.5603 20.5155 59.9309C20.5155 59.3016 20.0368 58.7981 19.4756 58.7981Z" fill="#383A48"/>
<path d="M20.301 72.3379H18.6504V59.9308C18.6504 59.4273 19.0135 59.0317 19.4757 59.0317H50.49V60.8299H20.301V72.3379Z" fill="#383A48"/>
</svg>
